<svg width="15" height="10" viewBox="0 0 15 10" fill="none" xmlns="http://www.w3.org/2000/svg">
<path fill-rule="evenodd" clip-rule="evenodd" d="M12.75 1.3742H9.2V2.2389H12.75V1.3742ZM5.711 4.76686C6.06199 4.61005 6.36553 4.36329 6.591 4.05146C6.80984 3.72227 6.92002 3.33255 6.906 2.93727C6.91467 2.58314 6.84642 2.23135 6.706 1.90625C6.56678 1.63623 6.36005 1.407 6.106 1.24094C5.84632 1.05369 5.55344 0.917671 5.243 0.840155C4.87342 0.74571 4.49506 0.689969 4.114 0.673828H0V9.52421H4.217C4.59765 9.53186 4.97754 9.48702 5.346 9.39094C5.70547 9.29964 6.04466 9.14161 6.346 8.92503C6.64491 8.73892 6.88705 8.47412 7.046 8.15953C7.22525 7.79874 7.31252 7.39907 7.3 6.99624C7.31477 6.495 7.17511 6.00137 6.9 5.58247C6.60916 5.17684 6.18381 4.88809 5.7 4.76787L5.711 4.76686ZM1.826 2.2389H3.719C3.88753 2.2432 4.05513 2.26537 4.219 2.30503C4.36258 2.33147 4.49892 2.38817 4.619 2.47136C4.7514 2.53807 4.86104 2.6427 4.934 2.77195C5.01654 2.9256 5.05658 3.09856 5.05 3.27293C5.06335 3.41821 5.03992 3.56451 4.98189 3.69831C4.92386 3.83211 4.8331 3.94909 4.718 4.03843C4.45576 4.18755 4.15596 4.25717 3.855 4.23883H1.826V2.2389ZM5.279 7.46216C5.21049 7.61594 5.10162 7.74823 4.964 7.84491C4.8255 7.92981 4.67421 7.99173 4.516 8.02827C4.33058 8.06854 4.14169 8.09069 3.952 8.0944H1.826V5.66563H4.018C4.37112 5.6458 4.72138 5.73915 5.018 5.93215C5.14797 6.05466 5.24838 6.20521 5.31162 6.3724C5.37486 6.53958 5.39927 6.719 5.383 6.89705C5.39242 7.09055 5.35824 7.28369 5.283 7.46216H5.279ZM14.045 5.39911C13.9332 4.95927 13.742 4.54363 13.481 4.1727C13.2063 3.79889 12.8453 3.49734 12.4289 3.29388C12.0125 3.09041 11.5531 2.99109 11.09 3.0044C10.6335 2.99842 10.181 3.08925 9.762 3.27093C9.39039 3.44449 9.05195 3.68187 8.762 3.9723C8.47338 4.28507 8.24851 4.65129 8.1 5.05042C7.94194 5.4815 7.86366 5.93785 7.869 6.39707C7.86248 6.85116 7.94083 7.30246 8.1 7.72768C8.22045 8.12898 8.43708 8.49464 8.731 8.79277C9.01555 9.1028 9.36769 9.34282 9.76 9.49415C10.1843 9.65397 10.6347 9.73281 11.088 9.7266C11.7363 9.7378 12.3728 9.55234 12.914 9.19456C13.4867 8.80314 13.8901 8.20882 14.043 7.53129H12.518C12.4384 7.78025 12.2737 7.99313 12.053 8.13247C11.7869 8.31077 11.473 8.40373 11.153 8.399C10.7439 8.42565 10.3401 8.29484 10.024 8.03328C9.87368 7.86654 9.75862 7.67102 9.68575 7.45853C9.61288 7.24603 9.58371 7.02095 9.6 6.79685H14.149C14.1928 6.3286 14.1591 5.8563 14.049 5.39911H14.045ZM9.6 5.66563C9.60649 5.52671 9.64048 5.39048 9.7 5.26484C9.72577 5.10171 9.80121 4.95053 9.91599 4.83199C10.0457 4.69218 10.197 4.57412 10.364 4.48231C10.5807 4.37331 10.8218 4.3219 11.064 4.33301C11.2389 4.31691 11.4152 4.33824 11.5812 4.3956C11.7472 4.45295 11.8992 4.545 12.027 4.66567C12.2572 4.95211 12.3966 5.3011 12.427 5.66763H9.6V5.66563Z" fill="#CCCCCC"/>
</svg>
