<svg width="8" height="15" viewBox="0 0 8 15" fill="none" xmlns="http://www.w3.org/2000/svg">
<path fill-rule="evenodd" clip-rule="evenodd" d="M4.81401 8.39302H7.00601L7.33801 5.86406H4.81401V4.23387C4.78877 3.91071 4.88349 3.58959 5.08001 3.3321C5.21691 3.21547 5.37645 3.12854 5.54857 3.0768C5.72069 3.02506 5.90164 3.00964 6.08001 3.03151L7.44101 2.99844V0.774084C6.79074 0.699751 6.13646 0.666286 5.48201 0.673888C5.0462 0.652482 4.61049 0.717883 4.20008 0.866306C3.78966 1.01473 3.4127 1.24323 3.091 1.53858C2.77906 1.86414 2.53799 2.25106 2.38307 2.67483C2.22814 3.0986 2.16274 3.54999 2.191 4.00041V5.86406H0V8.39302H2.191V14.8497H4.81401V8.39302Z" fill="#CCCCCC"/>
</svg>
