<svg width="51" height="51" viewBox="0 0 51 51" fill="none" xmlns="http://www.w3.org/2000/svg">
<path d="M44.9956 23.633C43.2602 22.7654 40.0064 22.7554 39.8688 22.7554C39.4562 22.7554 39.1217 23.0899 39.1217 23.5024C39.1217 23.915 39.4562 24.2495 39.8688 24.2495C40.7084 24.2496 43.1461 24.3789 44.3274 24.9695C44.4347 25.0232 44.5486 25.0485 44.6609 25.0485C44.9349 25.0485 45.1988 24.8971 45.3297 24.6354C45.5142 24.2663 45.3646 23.8176 44.9956 23.633Z" fill="black"/>
<path d="M48.7201 34.2697L45.6347 33.3882C45.5016 33.3501 45.4085 33.2268 45.4085 33.0883V32.0584C45.6595 31.8845 45.899 31.6898 46.1228 31.4726C47.2076 30.4199 47.8049 29.008 47.8049 27.4967V26.0756L48.1033 25.479C48.4307 24.8241 48.6037 24.0908 48.6037 23.3587V19.5088C48.6037 19.0962 48.2692 18.7617 47.8566 18.7617H40.6675C38.0534 18.7617 35.9265 20.8886 35.9265 23.5028V23.5473C35.9265 24.1561 36.0704 24.7658 36.3427 25.3103L36.7253 26.0755V27.2957C36.7253 29.2295 37.6782 30.9646 39.1217 32.0087L39.1219 33.0881C39.1219 33.2545 39.1219 33.3234 38.505 33.4997L36.9995 33.9299L32.6445 32.3463C32.6601 32.1408 32.5908 31.9318 32.4409 31.7743L31.0492 30.3122V27.8579C31.1964 27.7366 31.3414 27.6121 31.4819 27.4804C33.2376 25.8349 34.2444 23.5116 34.2444 21.1063V19.1462C34.7745 17.9927 35.0432 16.7719 35.0432 15.5148V7.5271C35.0432 7.11452 34.7087 6.78003 34.2961 6.78003H23.1131C19.1775 6.78003 15.9757 9.98187 15.9757 13.9173V15.515C15.9757 16.7721 16.2444 17.9929 16.7745 19.1464V20.8329C16.7745 23.6256 18.0162 26.1415 19.9697 27.8002V30.3123L18.578 31.7744C18.4281 31.9319 18.3588 32.1409 18.3744 32.3464L13.778 34.0177C13.4449 34.1388 13.1354 34.3029 12.8544 34.5016L12.1326 34.1407C14.2812 33.2055 14.9618 31.8902 14.9945 31.8248C15.0997 31.6145 15.0997 31.3669 14.9945 31.1566C14.4559 30.0795 14.3907 28.1051 14.3383 26.5187C14.3208 25.9906 14.3043 25.4916 14.2727 25.0474C14.018 21.464 11.2939 18.7617 7.93608 18.7617C4.57825 18.7617 1.85403 21.4639 1.59943 25.0474C1.56785 25.4917 1.55132 25.9907 1.53388 26.5189C1.48149 28.1052 1.41615 30.0794 0.877658 31.1565C0.772471 31.3668 0.772471 31.6144 0.877658 31.8247C0.91033 31.8901 1.58957 33.2027 3.74242 34.139L1.73759 35.1414C0.665789 35.6777 0 36.755 0 37.9532V43.4724C0 43.885 0.334488 44.2195 0.74707 44.2195C1.15965 44.2195 1.49414 43.885 1.49414 43.4724V37.9532C1.49414 37.3244 1.84347 36.7592 2.40577 36.478L4.90228 35.2298L5.77067 36.055C6.37789 36.6321 7.15683 36.9204 7.93608 36.9204C8.71512 36.9204 9.49447 36.6319 10.1015 36.055L10.9698 35.2299L11.7838 35.6369C11.4005 36.2502 11.1829 36.9693 11.1829 37.7227V43.4726C11.1829 43.8852 11.5174 44.2197 11.93 44.2197C12.3426 44.2197 12.6771 43.8852 12.6771 43.4726V37.7227C12.6771 36.6971 13.3246 35.7725 14.2886 35.422L19.1348 33.6598L21.1522 36.6861C21.41 37.0729 21.8233 37.3211 22.286 37.3669C22.3376 37.372 22.3889 37.3744 22.4401 37.3744C22.8483 37.3744 23.2393 37.2138 23.5315 36.9216L24.7623 35.6909V43.4727C24.7623 43.8853 25.0968 44.2198 25.5094 44.2198C25.9219 44.2198 26.2564 43.8853 26.2564 43.4727V35.6909L27.4872 36.9216C27.7794 37.2139 28.1703 37.3745 28.5786 37.3745C28.6297 37.3745 28.6811 37.3721 28.7326 37.367C29.1954 37.3212 29.6087 37.073 29.8666 36.6861L31.8841 33.66L36.7302 35.4222C37.694 35.7727 38.3416 36.6973 38.3416 37.7229V43.4728C38.3416 43.8854 38.6761 44.2199 39.0887 44.2199C39.5013 44.2199 39.8358 43.8854 39.8358 43.4728V37.7229C39.8358 36.6842 39.4231 35.71 38.7308 34.9895L38.9154 34.9368C39.1016 34.8836 39.3556 34.8108 39.6106 34.6858L41.518 36.5932V43.4728C41.518 43.8854 41.8525 44.2199 42.2651 44.2199C42.6776 44.2199 43.0121 43.8854 43.0121 43.4728V36.5932L44.9063 34.699C45.007 34.7502 45.1128 34.7935 45.2242 34.8252L48.3097 35.7068C49.0139 35.908 49.5059 36.5601 49.5059 37.2927V43.4728C49.5059 43.8854 49.8403 44.2199 50.2529 44.2199C50.6655 44.2199 51 43.8854 51 43.4728V37.2927C51 35.8963 50.0625 34.6533 48.7201 34.2697ZM4.79271 32.9502C3.39529 32.4474 2.69433 31.777 2.39511 31.4109C2.59911 30.8776 2.73139 30.2668 2.82094 29.6221C3.23292 30.6099 3.92292 31.4532 4.79271 32.0548V32.9502ZM9.07242 34.9721C8.43522 35.5775 7.43704 35.5774 6.80003 34.972L6.10526 34.3118C6.2225 34.0921 6.28695 33.8431 6.28695 33.5822V32.7859C6.8081 32.9488 7.36213 33.0367 7.93628 33.0367C8.50973 33.0367 9.06346 32.9484 9.58551 32.7864L9.58541 33.5821C9.58541 33.8431 9.64976 34.0922 9.7671 34.312L9.07242 34.9721ZM7.93648 31.5425C5.70563 31.5425 3.89084 29.7276 3.89084 27.4969C3.89084 27.0843 3.55635 26.7498 3.14377 26.7498C3.10194 26.7498 3.0611 26.7541 3.02115 26.7608C3.02334 26.6965 3.02544 26.6322 3.02763 26.5685C3.04426 26.0548 3.0603 25.5696 3.08988 25.1535C3.18531 23.8111 3.7217 22.5742 4.60026 21.6703C5.48668 20.7583 6.67144 20.2561 7.93628 20.2561C9.20112 20.2561 10.3858 20.7583 11.2723 21.6703C12.1508 22.5742 12.6872 23.8111 12.7827 25.1535C12.8122 25.5695 12.8283 26.0546 12.8452 26.5682C12.8467 26.6124 12.8482 26.6571 12.8497 26.7015C12.0369 25.4492 10.7816 24.5263 9.15968 24.0052C7.66126 23.5238 6.37251 23.5536 6.31812 23.5549C6.12249 23.5604 5.93682 23.6423 5.80105 23.7831L4.45314 25.1811C4.16676 25.4781 4.17533 25.951 4.47236 26.2374C4.7694 26.5238 5.24234 26.5151 5.52872 26.2182L6.65032 25.0551C7.61623 25.1023 10.7237 25.4637 11.9323 28.1249C11.6282 30.086 9.94261 31.5425 7.93648 31.5425ZM11.0795 32.9527L11.0796 32.0617C11.9486 31.4633 12.6396 30.6216 13.0519 29.6263C13.1415 30.2696 13.2736 30.879 13.4772 31.4111C13.1797 31.7737 12.4755 32.4501 11.0795 32.9527ZM18.2687 20.8328V18.9793C18.2687 18.8668 18.2433 18.7558 18.1943 18.6545C17.7136 17.659 17.4699 16.6027 17.4699 15.515V13.9174C17.4699 10.8057 20.0015 8.27427 23.1131 8.27427H33.549V15.5151C33.549 16.6028 33.3053 17.6591 32.8246 18.6546C32.7757 18.7559 32.7503 18.8669 32.7503 18.9794V21.1065C32.7503 23.1297 31.937 25.0063 30.4601 26.3905C30.2758 26.5632 30.0844 26.7252 29.8866 26.8761C29.8822 26.8791 29.878 26.8824 29.8737 26.8855C28.4903 27.9359 26.7957 28.4464 25.0261 28.3317C21.2368 28.0864 18.2687 24.7925 18.2687 20.8328ZM22.4751 35.865C22.4699 35.8701 22.4578 35.8824 22.4334 35.8798C22.4091 35.8774 22.3996 35.8632 22.3955 35.857L20.0721 32.3719L20.8198 31.5863L24.3444 33.9955L22.4751 35.865ZM25.5095 32.982L21.4638 30.2166V28.8221C22.5106 29.388 23.6827 29.7419 24.9293 29.8226C25.1263 29.8353 25.322 29.8416 25.5171 29.8416C26.9456 29.8416 28.3204 29.5001 29.5551 28.852V30.2166L25.5095 32.982ZM28.6235 35.8572C28.6194 35.8634 28.6098 35.8776 28.5855 35.88C28.5611 35.8831 28.5491 35.8703 28.5439 35.8652L26.6745 33.9958L30.1992 31.5864L30.9469 32.3721L28.6235 35.8572ZM42.2651 35.2269L40.5697 33.5316C40.5993 33.3972 40.616 33.2501 40.6159 33.0879L40.6158 32.7726C41.0863 32.927 41.5821 33.0186 42.0952 33.034C42.1528 33.0358 42.2099 33.0366 42.2672 33.0366C42.8342 33.0366 43.3877 32.9509 43.9144 32.7874V33.0883C43.9144 33.2373 43.9331 33.3833 43.9684 33.5237L42.2651 35.2269ZM45.0823 30.4004C44.2905 31.1688 43.2445 31.5746 42.1401 31.5405C39.9782 31.4757 38.2194 29.5714 38.2194 27.2959V25.8993C38.2194 25.7832 38.1924 25.6689 38.1405 25.5652L37.679 24.6422C37.51 24.304 37.4207 23.9255 37.4207 23.5474V23.5028C37.4207 21.7125 38.8772 20.256 40.6675 20.256H47.1096V23.3588C47.1096 23.8602 46.991 24.3624 46.7668 24.8109L46.3897 25.5652C46.3378 25.669 46.3108 25.7832 46.3108 25.8993V27.4968C46.3108 28.6005 45.8745 29.6316 45.0823 30.4004Z" fill="black"/>
<path d="M47.0577 37.9326C46.6451 37.9326 46.3106 38.2671 46.3106 38.6797V43.4724C46.3106 43.885 46.6451 44.2195 47.0577 44.2195C47.4703 44.2195 47.8047 43.885 47.8047 43.4724V38.6797C47.8047 38.2672 47.4703 37.9326 47.0577 37.9326Z" fill="black"/>
<path d="M3.94232 38.9202C3.52974 38.9202 3.19525 39.2547 3.19525 39.6672V43.4724C3.19525 43.885 3.52974 44.2195 3.94232 44.2195C4.3549 44.2195 4.68939 43.885 4.68939 43.4724V39.6672C4.68939 39.2548 4.3549 38.9202 3.94232 38.9202Z" fill="black"/>
<path d="M31.6292 15.7854C28.8037 12.9599 22.8919 13.5001 20.4812 13.8635C19.7219 13.9779 19.1708 14.6205 19.1708 15.3914V17.1124C19.1708 17.525 19.5053 17.8595 19.9179 17.8595C20.3305 17.8595 20.665 17.525 20.665 17.1124V15.3913C20.665 15.3659 20.6817 15.3442 20.704 15.3408C21.667 15.1956 23.5778 14.9717 25.5575 15.1037C27.8872 15.2588 29.5745 15.8436 30.5727 16.8419C30.8645 17.1336 31.3375 17.1336 31.6292 16.8419C31.921 16.5501 31.921 16.0771 31.6292 15.7854Z" fill="black"/>
<path d="M16.7228 39.5303C16.3102 39.5303 15.9757 39.8648 15.9757 40.2773V43.4725C15.9757 43.8851 16.3102 44.2196 16.7228 44.2196C17.1354 44.2196 17.4698 43.8851 17.4698 43.4725V40.2773C17.4698 39.8649 17.1354 39.5303 16.7228 39.5303Z" fill="black"/>
<path d="M34.2962 39.5303C33.8836 39.5303 33.5491 39.8648 33.5491 40.2773V43.4725C33.5491 43.8851 33.8836 44.2196 34.2962 44.2196C34.7088 44.2196 35.0433 43.8851 35.0433 43.4725V40.2773C35.0433 39.8649 34.7088 39.5303 34.2962 39.5303Z" fill="black"/>
</svg>
