<svg width="51" height="51" viewBox="0 0 51 51" fill="none" xmlns="http://www.w3.org/2000/svg">
<g clip-path="url(#clip0_24:234)">
<path d="M8.9699 39.4403C8.25591 39.4403 7.56953 39.6185 6.96059 39.9531C3.75286 35.8411 1.99219 30.733 1.99219 25.5C1.99219 12.5376 12.5376 1.99219 25.5 1.99219C27.0759 1.99219 28.6509 2.14899 30.1816 2.45833C30.7202 2.56728 31.2462 2.21864 31.3552 1.67935C31.4641 1.14006 31.1155 0.614777 30.5762 0.50544C28.9159 0.170036 27.2081 0 25.5 0C18.6888 0 12.285 2.65249 7.46876 7.46876C2.65249 12.285 0 18.6888 0 25.5C0 31.2295 1.9455 36.8208 5.48746 41.3033C5.03144 41.9846 4.78631 42.7853 4.78631 43.6238C4.78631 44.7413 5.22171 45.7919 6.01197 46.5818C6.80184 47.372 7.85241 47.8074 8.9699 47.8074C10.0874 47.8074 11.138 47.372 11.9282 46.5818C12.7185 45.7919 13.1535 44.741 13.1535 43.6235C13.1535 42.5064 12.7185 41.4554 11.9282 40.6655C11.138 39.8753 10.0874 39.4403 8.9699 39.4403ZM10.5193 45.1732C10.1057 45.5872 9.55511 45.8153 8.9699 45.8153C8.3847 45.8153 7.83451 45.5872 7.42051 45.1732C7.00651 44.7592 6.7785 44.2091 6.7785 43.6238C6.7785 43.0383 7.00651 42.4881 7.42051 42.0741C7.83412 41.6601 8.3847 41.4324 8.9699 41.4324C9.55511 41.4324 10.1053 41.6605 10.5193 42.0741C10.9333 42.4881 11.1613 43.0383 11.1613 43.6238C11.1613 44.2091 10.9333 44.7592 10.5193 45.1732Z" fill="black"/>
<path d="M45.5118 9.69564C46.5946 8.07115 46.4207 5.85017 44.9884 4.4179C44.1982 3.62803 43.1476 3.19263 42.0301 3.19263C40.9126 3.19263 39.8621 3.62803 39.0718 4.4179C38.2815 5.20816 37.8465 6.25873 37.8465 7.37622C37.8465 8.49371 38.2815 9.54428 39.0718 10.3345C39.8621 11.1248 40.9126 11.5598 42.0301 11.5598C42.7441 11.5598 43.4305 11.3816 44.0394 11.047C47.2472 15.1594 49.0078 20.2671 49.0078 25.5001C49.0078 38.4625 38.4625 49.0079 25.5 49.0079C23.9397 49.0079 22.3794 48.8542 20.8631 48.5507C20.3238 48.4429 19.7989 48.7927 19.6908 49.332C19.583 49.8717 19.9328 50.3962 20.4721 50.5044C22.1168 50.8331 23.8086 51.0001 25.5 51.0001C32.3112 51.0001 38.715 48.3476 43.5313 43.5313C48.3475 38.715 51 32.3112 51 25.5001C51 19.7702 49.0541 14.1785 45.5118 9.69564ZM40.4807 8.926C40.0667 8.512 39.8387 7.96181 39.8387 7.37622C39.8387 6.79102 40.0667 6.24083 40.4807 5.82683C40.8943 5.41283 41.4449 5.18481 42.0301 5.18481C42.6153 5.18481 43.1659 5.41283 43.5799 5.82683C44.434 6.68129 44.434 8.07154 43.5799 8.926C43.1659 9.33961 42.6153 9.56763 42.0301 9.56763C41.4445 9.56763 40.8943 9.33961 40.4807 8.926Z" fill="black"/>
<path d="M21.3895 42.6328C21.3895 43.183 21.8358 43.6289 22.3856 43.6289H28.6139C29.1641 43.6289 29.61 43.183 29.61 42.6328V40.7017C30.9197 40.3492 32.1719 39.8301 33.3485 39.1523L34.7119 40.5157C34.8987 40.7025 35.152 40.8075 35.4165 40.8075C35.6804 40.8075 35.9341 40.7025 36.1208 40.5153L40.5231 36.11C40.9118 35.7209 40.9118 35.0901 40.5231 34.7014L39.1612 33.3396C39.8391 32.1629 40.3581 30.9108 40.7106 29.6011H42.6343C43.1845 29.6011 43.6304 29.1552 43.6304 28.605V22.3767C43.6304 21.8265 43.1845 21.3806 42.6343 21.3806H40.7102C40.3577 20.0713 39.8391 18.8192 39.1612 17.6425L40.5157 16.2881C40.7025 16.1013 40.8075 15.8476 40.8075 15.5834C40.8071 15.3192 40.7021 15.0655 40.5153 14.8788L36.1095 10.4765C35.7208 10.0878 35.0901 10.0878 34.701 10.4769L33.3485 11.8298C32.1719 11.152 30.9197 10.6329 29.61 10.2804V8.36719C29.61 7.817 29.1641 7.37109 28.6139 7.37109H22.3856C21.8358 7.37109 21.3895 7.817 21.3895 8.36719V10.2808C20.0802 10.6329 18.8281 11.152 17.6515 11.8298L16.2986 10.4769C15.9098 10.0882 15.2791 10.0878 14.89 10.4765L10.4846 14.8792C10.2975 15.0659 10.1924 15.3192 10.1924 15.5834C10.1924 15.8476 10.2975 16.1013 10.4842 16.2881L11.8387 17.6425C11.1609 18.8192 10.6418 20.0709 10.2893 21.3806H8.3691C7.81892 21.3806 7.37301 21.8265 7.37301 22.3763L7.36951 28.6046C7.36912 28.8688 7.47418 29.1225 7.66094 29.3093C7.84771 29.496 8.10101 29.6011 8.3656 29.6011H10.2893C10.6418 30.9108 11.1609 32.1629 11.8387 33.3396L10.4769 34.7014C10.0881 35.0901 10.0878 35.7209 10.4769 36.11L14.8791 40.5153C15.0659 40.7021 15.3192 40.8075 15.5834 40.8075H15.5838C15.848 40.8075 16.1013 40.7025 16.288 40.5157L17.6511 39.1523C18.8281 39.8301 20.0802 40.3492 21.3895 40.7017V42.6328ZM18.0417 37.0574C17.6476 36.8026 17.1289 36.8578 16.7966 37.1897L15.5838 38.4025L12.5897 35.4061L13.8013 34.194C14.1332 33.8621 14.1885 33.3435 13.9336 32.9493C13.0305 31.5517 12.3955 30.0198 12.0469 28.3957C11.948 27.9369 11.5426 27.6089 11.073 27.6089H9.36208L9.36442 23.3728H11.073C11.5426 23.3728 11.948 23.0452 12.0469 22.586C12.3955 20.9623 13.0305 19.4304 13.9336 18.0328C14.1885 17.6386 14.1332 17.12 13.8013 16.7881L12.5974 15.5838L15.5939 12.5897L16.7966 13.7928C17.1289 14.1247 17.6472 14.1796 18.0417 13.9251C19.439 13.022 20.9709 12.387 22.595 12.0383C23.0537 11.9395 23.3817 11.5337 23.3817 11.0644V9.36328H27.6178V11.064C27.6178 11.5337 27.9455 11.9395 28.4046 12.0379C30.0283 12.387 31.5606 13.0216 32.9578 13.9247C33.352 14.1796 33.8707 14.1247 34.2026 13.7924L35.4057 12.5897L38.4021 15.5838L37.1982 16.7877C36.8659 17.12 36.8111 17.6386 37.0659 18.0328C37.969 19.4304 38.6037 20.9623 38.9527 22.586C39.0511 23.0452 39.457 23.3728 39.9266 23.3728H41.6382V27.6089H39.9266C39.457 27.6089 39.0515 27.9369 38.9527 28.3957C38.604 30.0194 37.969 31.5517 37.0659 32.9489C36.8111 33.3435 36.8663 33.8621 37.1982 34.194L38.4099 35.4057L35.4158 38.4021L34.2029 37.1897C33.8707 36.8574 33.352 36.8026 32.9578 37.0574C31.5602 37.9605 30.0283 38.5951 28.4046 38.9442C27.9455 39.043 27.6178 39.4484 27.6178 39.9181V41.6367H23.3817V39.9181C23.3817 39.4488 23.0537 39.043 22.595 38.9442C20.9712 38.5955 19.4394 37.9605 18.0417 37.0574Z" fill="black"/>
<path d="M33.7306 25.4999C33.7306 20.9614 30.0385 17.2693 25.5 17.2693C20.9616 17.2693 17.2694 20.9614 17.2694 25.4999C17.2694 30.0384 20.9616 33.7305 25.5 33.7305C30.0385 33.7305 33.7306 30.0384 33.7306 25.4999ZM19.2616 25.4999C19.2616 22.0599 22.06 19.2615 25.5 19.2615C28.94 19.2615 31.7384 22.0603 31.7384 25.4999C31.7384 28.9395 28.94 31.7383 25.5 31.7383C22.06 31.7383 19.2616 28.9399 19.2616 25.4999Z" fill="black"/>
<path d="M34.6719 3.76728C34.9341 3.76728 35.1909 3.66067 35.3761 3.47546C35.5614 3.28908 35.668 3.03227 35.668 2.77002C35.668 2.50932 35.5617 2.25213 35.3761 2.06575C35.1909 1.88054 34.9341 1.77393 34.6719 1.77393C34.4088 1.77393 34.1532 1.88054 33.968 2.06575C33.7824 2.25213 33.6758 2.50816 33.6758 2.77002C33.6758 3.03305 33.7824 3.28908 33.968 3.47546C34.1532 3.66067 34.4088 3.76728 34.6719 3.76728Z" fill="black"/>
<path d="M16.3717 47.2507C16.1098 47.2507 15.8526 47.3573 15.6674 47.5426C15.4822 47.7278 15.3756 47.985 15.3756 48.2468C15.3756 48.5099 15.4822 48.7659 15.6674 48.9511C15.8526 49.1363 16.1098 49.2429 16.3717 49.2429C16.6336 49.2429 16.8908 49.1363 17.076 48.9511C17.2612 48.7659 17.3678 48.5087 17.3678 48.2468C17.3678 47.985 17.2612 47.7278 17.076 47.5426C16.8908 47.3573 16.6336 47.2507 16.3717 47.2507Z" fill="black"/>
</g>
<defs>
<clipPath id="clip0_24:234">
<rect width="51" height="51" fill="white"/>
</clipPath>
</defs>
</svg>
