<svg width="51" height="51" viewBox="0 0 51 51" fill="none" xmlns="http://www.w3.org/2000/svg">
<path d="M39.4839 4.1852V4.1129C39.4839 1.84518 37.6387 0 35.371 0H10.6935C8.42583 0 6.58065 1.84518 6.58065 4.1129V8.41097C2.3368 13.1055 0 19.1587 0 25.5C0 27.448 0.232957 29.3775 0.667142 31.2581H0V35.371C0 37.6387 1.84518 39.4839 4.1129 39.4839H4.1852C8.92508 46.6995 16.8529 51 25.5 51C39.5602 51 51 39.5602 51 25.5C51 16.8521 46.6995 8.92428 39.4839 4.1852ZM37.8387 4.1129V14.8065H32.9032V4.1129C32.9032 2.75251 34.0106 1.64516 35.371 1.64516C36.7314 1.64516 37.8387 2.75251 37.8387 4.1129ZM10.6935 1.64516H32.1019C31.5798 2.33439 31.2581 3.18348 31.2581 4.1129V18.3872C30.7423 18.2036 30.1905 18.0968 29.6129 18.0968C26.8909 18.0968 24.6774 20.3103 24.6774 23.0323C24.6774 23.1279 24.6867 23.2214 24.6915 23.3154C22.7387 23.9962 21.3871 25.839 21.3871 27.9677C21.3871 28.3602 21.4381 28.7401 21.5253 29.1068C20.836 29.6796 20.3275 30.4254 20.0331 31.2581H8.22581V4.1129C8.22581 2.75251 9.33316 1.64516 10.6935 1.64516ZM42.391 24.9357C43.596 25.4357 44.4194 26.6138 44.4194 27.9677C44.4194 29.7824 42.9437 31.2581 41.129 31.2581V32.9032C42.8344 32.9032 44.3394 32.0337 45.2263 30.7158C45.7372 31.2886 46.0416 32.0248 46.0629 32.8104C46.0926 33.8853 45.4954 34.94 44.4639 35.6308C43.4562 36.3056 42.6477 36.2413 42.0576 36.1096L41.2186 35.9228L41.0688 36.7695C40.8796 37.8427 40.1627 38.7501 39.1517 39.1959L38.6613 39.4124V41.129H36.1935V34.5484H37.0161C38.3765 34.5484 39.4839 33.441 39.4839 32.0806C39.4839 30.7203 38.3765 29.6129 37.0161 29.6129C35.6557 29.6129 34.5484 30.7203 34.5484 32.0806V32.9032H32.9032V32.0806C32.9032 30.7203 31.7959 29.6129 30.4355 29.6129C29.0751 29.6129 27.9677 30.7203 27.9677 32.0806C27.9677 33.441 29.0751 34.5484 30.4355 34.5484H31.2581V41.129H28.7903V39.4124L28.2999 39.1951C27.289 38.7493 26.5728 37.8419 26.3828 36.7687L26.233 35.922L25.394 36.1088C24.8031 36.2405 23.9946 36.3036 22.9877 35.63C21.957 34.9392 21.359 33.8845 21.3887 32.8096C21.4108 32.024 21.7152 31.2878 22.2261 30.715C23.1122 32.0337 24.6172 32.9032 26.3226 32.9032V31.2581C24.5079 31.2581 23.0323 29.7824 23.0323 27.9677C23.0323 26.6138 23.8548 25.4357 25.0598 24.9365C25.8069 26.715 27.5657 27.9677 29.6129 27.9677V26.3226C27.7982 26.3226 26.3226 24.8469 26.3226 23.0323C26.3226 21.2176 27.7982 19.7419 29.6129 19.7419C31.4276 19.7419 32.9032 21.2176 32.9032 23.0323H34.5484C34.5484 21.2176 36.0241 19.7419 37.8387 19.7419C39.6534 19.7419 41.129 21.2176 41.129 23.0323C41.129 24.8469 39.6534 26.3226 37.8387 26.3226V27.9677C39.8851 27.9677 41.6448 26.715 42.391 24.9357ZM29.0871 46.0645H37.568C35.6128 47.2169 33.4808 48.0981 31.2211 48.6564C30.2226 48.0627 29.4707 47.1429 29.0871 46.0645ZM27.1452 44.4194C26.6921 44.4194 26.3226 44.0498 26.3226 43.5968C26.3226 43.1437 26.6921 42.7742 27.1452 42.7742H40.3064C40.7302 42.7742 41.068 43.1007 41.1118 43.5136C40.7515 43.8261 40.384 44.129 40.0052 44.4194H27.1452ZM31.2581 32.9032H30.4355C29.9824 32.9032 29.6129 32.5337 29.6129 32.0806C29.6129 31.6276 29.9824 31.2581 30.4355 31.2581C30.8885 31.2581 31.2581 31.6276 31.2581 32.0806V32.9032ZM34.5484 41.129H32.9032V34.5484H34.5484V41.129ZM36.1935 32.9032V32.0806C36.1935 31.6276 36.5631 31.2581 37.0161 31.2581C37.4692 31.2581 37.8387 31.6276 37.8387 32.0806C37.8387 32.5337 37.4692 32.9032 37.0161 32.9032H36.1935ZM1.64516 25.5C1.64516 20.205 3.38391 15.123 6.58065 10.9699V31.2581H2.35769C1.89258 29.3828 1.64516 27.4512 1.64516 25.5ZM1.64516 35.371V32.9032H19.7492C19.756 34.4958 20.6107 36.0184 22.0715 36.9972C22.9961 37.6166 23.9468 37.8937 24.9654 37.8279C24.967 37.8323 24.9686 37.8355 24.9702 37.8387H4.1129C2.75251 37.8387 1.64516 36.7314 1.64516 35.371ZM6.17096 39.4839H25.9687C26.3085 39.859 26.6969 40.192 27.1444 40.451V41.129C25.784 41.129 24.6766 42.2364 24.6766 43.5968C24.6766 44.9572 25.784 46.0645 27.1444 46.0645H27.3633C27.6609 47.2144 28.2714 48.2527 29.1068 49.0817C27.9316 49.2613 26.7266 49.3548 25.5 49.3548C17.7751 49.3548 10.6582 45.6918 6.17096 39.4839ZM42.4039 42.3135C41.9697 41.6062 41.1957 41.129 40.3064 41.129V40.451C41.3283 39.859 42.0998 38.9288 42.4862 37.8279C43.5072 37.8945 44.4555 37.6166 45.3801 36.9972C46.8831 35.9903 47.7535 34.4078 47.7081 32.7651C47.6687 31.3344 47.0128 30.0085 45.9272 29.1068C46.0135 28.7401 46.0645 28.3602 46.0645 27.9677C46.0645 25.839 44.7122 23.9954 42.7601 23.3154C42.765 23.2214 42.7742 23.1279 42.7742 23.0323C42.7742 20.3103 40.5607 18.0968 37.8387 18.0968C36.1245 18.0968 34.611 18.9752 33.7258 20.3071C33.4928 19.9576 33.2149 19.6415 32.9032 19.362V16.4516H39.4839V6.17096C45.6918 10.6574 49.3548 17.7751 49.3548 25.5C49.3548 32.0533 46.6971 37.9974 42.4039 42.3135Z" fill="white"/>
<path d="M29.6129 3.29053H9.87097V14.8067H29.6129V3.29053ZM27.9677 13.1615H11.5161V4.93569H27.9677V13.1615Z" fill="white"/>
<path d="M9.87097 16.4517H19.7419V18.0968H9.87097V16.4517Z" fill="white"/>
<path d="M9.87097 19.7417H19.7419V21.3869H9.87097V19.7417Z" fill="white"/>
<path d="M9.87097 23.0322H19.7419V24.6774H9.87097V23.0322Z" fill="white"/>
<path d="M18.0968 26.3228H19.7419V27.9679H18.0968V26.3228Z" fill="white"/>
<path d="M9.87097 26.3228H16.4516V27.9679H9.87097V26.3228Z" fill="white"/>
</svg>
