<svg width="51" height="51" viewBox="0 0 51 51" fill="none" xmlns="http://www.w3.org/2000/svg">
<g clip-path="url(#clip0_24:114)">
<path d="M43.8317 0H41.639C40.6751 0 40.6751 1.49436 41.639 1.49436H43.8317C46.0961 1.49436 47.9385 3.33002 47.9385 5.5863V22.8782C47.9385 25.1346 46.0962 26.9703 43.8317 26.9703H41.3448C41.1807 26.9703 41.0212 27.0242 40.8908 27.124L36.3274 30.6146V27.7174C36.3274 27.3048 35.993 26.9703 35.5802 26.9703H26.4866C25.7419 26.9703 25.0262 26.7737 24.395 26.4V18.0125C24.395 16.4414 23.5948 15.0534 22.3797 14.2322V5.5863C22.3797 3.33002 24.222 1.49436 26.4866 1.49436H36.9566C37.9204 1.49436 37.9204 0 36.9566 0H26.4866C23.398 0 20.8853 2.50604 20.8853 5.5863V13.5754C20.5432 13.4937 20.1868 13.4492 19.8199 13.4492H6.142C3.61943 13.4492 1.56708 15.4963 1.56708 18.0125V19.6259C1.56708 20.5896 3.06143 20.5896 3.06143 19.6259V18.0125C3.06143 16.3203 4.44332 14.9436 6.142 14.9436H19.82C21.5187 14.9436 22.9007 16.3203 22.9007 18.0125V26.6975C22.8917 26.7634 22.8921 26.8299 22.9007 26.8953V31.6486C22.9007 31.7425 22.895 31.8361 22.8866 31.9291H21.3457C19.6478 31.9291 18.2323 33.1546 17.9389 34.7652C17.8709 34.7908 17.8057 34.8266 17.7452 34.8732L14.4033 37.4536V35.4647C14.4033 35.052 14.0689 34.7175 13.6561 34.7175H6.142C4.44332 34.7175 3.06143 33.3408 3.06143 31.6486V24.109C3.06143 23.1452 1.56708 23.1452 1.56708 24.109V31.6487C1.56708 34.1649 3.61943 36.212 6.142 36.212H12.909V38.9745C12.909 39.5739 13.6368 39.9334 14.1129 39.566L17.8822 36.6557V45.0614C17.8822 46.9667 19.436 48.5167 21.3458 48.5167H25.931V50.2602C25.931 50.8593 26.6587 51.2193 27.1347 50.8517L30.1589 48.5167H31.0523C32.9621 48.5167 34.5159 46.9666 34.5159 45.0614V43.7348C34.5159 42.7711 33.0216 42.7711 33.0216 43.7348V45.0614C33.0216 46.1427 32.1382 47.0223 31.0523 47.0223H29.904C29.7387 47.0223 29.5781 47.0771 29.4474 47.178L27.4252 48.7392V47.7694C27.4252 47.3568 27.0908 47.0222 26.678 47.0222H21.3457C20.2599 47.0222 19.3764 46.1425 19.3764 45.0613V35.3845C19.3764 34.3032 20.2598 33.4236 21.3457 33.4236H31.0523C32.1381 33.4236 33.0216 34.3033 33.0216 35.3845V39.0525C33.0216 40.0163 34.5159 40.0163 34.5159 39.0525V35.3846C34.5159 33.4793 32.9621 31.9293 31.0523 31.9293H24.3865C24.3922 31.836 24.3951 28.0621 24.3951 28.0621C25.0539 28.327 25.7602 28.4647 26.4867 28.4647H34.8332V32.1269C34.8332 32.7247 35.5578 33.0847 36.0343 32.7203L41.5979 28.4647H43.8318C46.9202 28.4647 49.4329 25.9587 49.4329 22.8783V5.5863C49.4328 2.50604 46.9201 0 43.8317 0V0Z" fill="white"/>
<path d="M37.026 5.52008C36.0773 5.27789 35.1105 6.02746 35.1105 7.00776C35.1105 8.07882 34.7202 9.11102 34.012 9.91369L31.9533 12.2432C31.82 12.0387 31.5897 11.9033 31.3274 11.9033H27.3086C26.8958 11.9033 26.5614 12.2378 26.5614 12.6505V21.6928C26.5614 22.1054 26.8958 22.44 27.3086 22.44H31.3274C31.6294 22.44 31.8888 22.2606 32.0066 22.0029C32.8203 22.5001 33.7631 22.7688 34.7224 22.7688H41.8248C42.9101 22.7688 43.8054 21.8271 43.7545 20.7446C43.7319 20.2652 43.7566 13.8282 43.7566 13.6852C43.7566 12.6201 42.8899 11.7533 41.827 11.7533L38.1336 11.7423L38.2865 11.3801C38.9854 9.7251 38.8703 7.80595 37.9791 6.24614C37.7711 5.88171 37.4325 5.62399 37.026 5.52008C37.4325 5.62399 36.6193 5.41627 37.026 5.52008C37.4325 5.62399 36.0774 5.27789 37.026 5.52008ZM30.5802 20.9456H28.0558V13.3976H30.5802V20.9456ZM41.8248 13.2476C42.0661 13.2476 42.2623 13.4439 42.2623 13.6851C42.2623 13.8273 42.2608 14.2132 42.2588 14.7363C42.2478 17.6246 42.2404 20.36 42.2617 20.8147C42.2695 20.9788 42.1897 21.0882 42.1415 21.1388C42.058 21.2263 41.9455 21.2744 41.8248 21.2744H34.7224C33.8758 21.2744 33.0472 20.981 32.3891 20.4483L32.0746 20.1937V14.3626L35.1321 10.9028C36.0819 9.82642 36.6049 8.44314 36.6049 7.00766C36.6049 6.96542 36.6626 6.95446 36.6817 6.98734C37.3434 8.14527 37.4287 9.56999 36.9099 10.7986L36.3202 12.1953C36.2229 12.4257 36.2474 12.6894 36.3852 12.898C36.5232 13.1066 36.7563 13.2324 37.0063 13.2332L41.8248 13.2476Z" fill="white"/>
<path d="M7.96507 25.9516C7.55233 25.9516 7.2179 26.2861 7.2179 26.6987C7.2179 27.1114 7.55233 27.4459 7.96507 27.4459H10.1676L9.75611 29.9344C9.68876 30.3415 9.96432 30.7261 10.3714 30.7935C10.4127 30.8004 10.4537 30.8036 10.4941 30.8036C10.8532 30.8036 11.1699 30.5441 11.2304 30.1782L11.6821 27.446H13.4846L13.0732 29.9345C13.0058 30.3416 13.2814 30.7262 13.6885 30.7936C13.7298 30.8005 13.7707 30.8037 13.8112 30.8037C14.1702 30.8037 14.4869 30.5442 14.5475 30.1783L14.9992 27.4461H17.9972C18.4099 27.4461 18.7444 27.1116 18.7444 26.6989C18.7444 26.2863 18.4099 25.9518 17.9972 25.9518H15.2463L15.5476 24.129H17.9972C18.4099 24.129 18.7444 23.7945 18.7444 23.3819C18.7444 22.9692 18.4099 22.6347 17.9972 22.6347H15.7947L16.2062 20.1462C16.2735 19.7391 15.9979 19.3545 15.5909 19.2871C15.1833 19.2196 14.7992 19.4953 14.7318 19.9024L14.2801 22.6346H12.4776L12.8891 20.1461C12.9564 19.739 12.6809 19.3544 12.2738 19.287C11.8657 19.2195 11.4822 19.4952 11.4147 19.9023L10.9631 22.6345H7.96507C7.55233 22.6345 7.2179 22.969 7.2179 23.3817C7.2179 23.7943 7.55233 24.1288 7.96507 24.1288H10.716L10.4146 25.9516H7.96507ZM12.2307 24.1288H14.0332L13.7318 25.9516H11.9293L12.2307 24.1288Z" fill="white"/>
<path d="M26.19 37.2788C25.5866 36.7821 24.784 36.5861 23.9788 36.7819C22.947 37.0324 21.9058 37.997 21.9058 39.5869C21.9058 40.5765 22.267 41.4354 23.0099 42.2129C23.6167 42.848 24.4924 43.4519 25.849 44.1712C25.9585 44.2293 26.0788 44.2583 26.199 44.2583C26.3193 44.2583 26.4395 44.2293 26.549 44.1712C28.9159 42.9164 30.4921 41.6567 30.4921 39.5869C30.4921 37.9883 29.414 37.0336 28.3454 36.7966C27.5426 36.6185 26.7644 36.8076 26.19 37.2788ZM28.9977 39.5869C28.9977 40.7033 28.2572 41.5289 26.1989 42.6619C24.1407 41.5288 23.4001 40.7032 23.4001 39.5869C23.4001 38.7562 23.8811 38.3434 24.3313 38.234C24.4143 38.2139 24.5031 38.2025 24.5945 38.2025C24.9331 38.2025 25.3054 38.3589 25.5349 38.804C25.6657 39.0572 25.9301 39.2142 26.2138 39.2083C26.4986 39.2026 26.7555 39.0355 26.876 38.7773C27.1178 38.259 27.6262 38.1679 28.0215 38.2556C28.4936 38.3601 28.9977 38.7649 28.9977 39.5869Z" fill="white"/>
</g>
<defs>
<clipPath id="clip0_24:114">
<rect width="51" height="51" fill="white"/>
</clipPath>
</defs>
</svg>
