<svg width="51" height="51" viewBox="0 0 51 51" fill="none" xmlns="http://www.w3.org/2000/svg">
<path d="M8.61621 2.49023C8.0668 2.49023 7.62012 2.93692 7.62012 3.48633C7.62012 4.03574 8.0668 4.48242 8.61621 4.48242C9.16562 4.48242 9.6123 4.03574 9.6123 3.48633C9.6123 2.93692 9.16562 2.49023 8.61621 2.49023Z" fill="white"/>
<path d="M12.1025 2.49023C11.5531 2.49023 11.1064 2.93692 11.1064 3.48633C11.1064 4.03574 11.5531 4.48242 12.1025 4.48242C12.6519 4.48242 13.0986 4.03574 13.0986 3.48633C13.0986 2.93692 12.6519 2.49023 12.1025 2.49023Z" fill="white"/>
<path d="M15.5889 2.49023C15.0395 2.49023 14.5928 2.93692 14.5928 3.48633C14.5928 4.03574 15.0395 4.48242 15.5889 4.48242C16.1383 4.48242 16.585 4.03574 16.585 3.48633C16.585 2.93692 16.1383 2.49023 15.5889 2.49023Z" fill="white"/>
<path d="M43.0811 0H7.91895C6.40846 0 5.17969 1.22878 5.17969 2.73926V43.7791C5.17969 44.1919 5.51431 44.5262 5.92676 44.5262C6.3392 44.5262 6.67383 44.1919 6.67383 43.7791V23.8066H19.2534C19.562 24.6763 20.3923 25.3008 21.3662 25.3008H29.6338C30.6077 25.3008 31.438 24.6763 31.7466 23.8066H44.3262V48.2607C44.3262 48.9475 43.7678 49.5059 43.0811 49.5059H7.91895C7.23219 49.5059 6.67383 48.9475 6.67383 48.2607V47.2654C6.67383 46.853 6.3392 46.5184 5.92676 46.5184C5.51431 46.5184 5.17969 46.853 5.17969 47.2654V48.2607C5.17969 49.7712 6.40846 51 7.91895 51H43.0811C44.5915 51 45.8203 49.7712 45.8203 48.2607V2.73926C45.8203 1.22878 44.5915 0 43.0811 0ZM29.6338 23.8066H21.3662C20.9542 23.8066 20.6191 23.4716 20.6191 23.0596C20.6191 22.6475 20.9542 22.3125 21.3662 22.3125H29.6338C30.0458 22.3125 30.3809 22.6475 30.3809 23.0596C30.3809 23.4716 30.0458 23.8066 29.6338 23.8066ZM44.3262 22.3125H31.7466C31.438 21.4429 30.6077 20.8184 29.6338 20.8184H21.3662C20.3923 20.8184 19.562 21.4429 19.2534 22.3125H6.67383V6.97266H41.5869C41.9994 6.97266 42.334 6.63842 42.334 6.22559C42.334 5.81275 41.9994 5.47852 41.5869 5.47852H6.67383V2.73926C6.67383 2.0525 7.23219 1.49414 7.91895 1.49414H43.0811C43.7678 1.49414 44.3262 2.0525 44.3262 2.73926V22.3125Z" fill="white"/>
<path d="M19.4736 11.6543C19.4736 11.2415 19.139 10.9072 18.7266 10.9072H13.1484C12.736 10.9072 12.4014 11.2415 12.4014 11.6543C12.4014 12.0671 12.736 12.4014 13.1484 12.4014H18.7266C19.139 12.4014 19.4736 12.0671 19.4736 11.6543Z" fill="white"/>
<path d="M21.7148 12.4014H29.2852C29.6976 12.4014 30.0322 12.0671 30.0322 11.6543C30.0322 11.2415 29.6976 10.9072 29.2852 10.9072H21.7148C21.3024 10.9072 20.9678 11.2415 20.9678 11.6543C20.9678 12.0671 21.3024 12.4014 21.7148 12.4014Z" fill="white"/>
<path d="M37.8516 10.9072H32.2734C31.861 10.9072 31.5264 11.2415 31.5264 11.6543C31.5264 12.0671 31.861 12.4014 32.2734 12.4014H37.8516C38.264 12.4014 38.5986 12.0671 38.5986 11.6543C38.5986 11.2415 38.264 10.9072 37.8516 10.9072Z" fill="white"/>
<path d="M24.7529 14.6426C24.7529 14.2297 24.4183 13.8955 24.0059 13.8955H16.9336C16.5211 13.8955 16.1865 14.2297 16.1865 14.6426C16.1865 15.0554 16.5211 15.3896 16.9336 15.3896H24.0059C24.4183 15.3896 24.7529 15.0554 24.7529 14.6426Z" fill="white"/>
<path d="M34.0664 13.8955H26.9941C26.5817 13.8955 26.2471 14.2297 26.2471 14.6426C26.2471 15.0554 26.5817 15.3896 26.9941 15.3896H34.0664C34.4789 15.3896 34.8135 15.0554 34.8135 14.6426C34.8135 14.2297 34.4789 13.8955 34.0664 13.8955Z" fill="white"/>
<path d="M30.7793 16.8838H20.7188C20.3063 16.8838 19.9717 17.218 19.9717 17.6309C19.9717 18.0437 20.3063 18.3779 20.7188 18.3779H30.7793C31.1917 18.3779 31.5264 18.0437 31.5264 17.6309C31.5264 17.218 31.1917 16.8838 30.7793 16.8838Z" fill="white"/>
<path d="M14.2441 26.7451C11.9924 26.7451 10.1602 28.5774 10.1602 30.8291C10.1602 33.0808 11.9924 34.9131 14.2441 34.9131C16.4959 34.9131 18.3281 33.0808 18.3281 30.8291C18.3281 28.5774 16.4959 26.7451 14.2441 26.7451ZM14.2441 33.4189C12.8161 33.4189 11.6543 32.2571 11.6543 30.8291C11.6543 29.4011 12.8161 28.2393 14.2441 28.2393C15.6721 28.2393 16.834 29.4011 16.834 30.8291C16.834 32.2571 15.6721 33.4189 14.2441 33.4189Z" fill="white"/>
<path d="M11.6543 36.4072C11.2419 36.4072 10.9072 36.7415 10.9072 37.1543C10.9072 37.5671 11.2419 37.9014 11.6543 37.9014H16.834C17.2464 37.9014 17.5811 37.5671 17.5811 37.1543C17.5811 36.7415 17.2464 36.4072 16.834 36.4072H11.6543Z" fill="white"/>
<path d="M25.5 26.7451C23.2483 26.7451 21.416 28.5774 21.416 30.8291C21.416 33.0808 23.2483 34.9131 25.5 34.9131C27.7517 34.9131 29.584 33.0808 29.584 30.8291C29.584 28.5774 27.7517 26.7451 25.5 26.7451ZM25.5 33.4189C24.072 33.4189 22.9102 32.2571 22.9102 30.8291C22.9102 29.4011 24.072 28.2393 25.5 28.2393C26.928 28.2393 28.0898 29.4011 28.0898 30.8291C28.0898 32.2571 26.928 33.4189 25.5 33.4189Z" fill="white"/>
<path d="M28.8369 37.1543C28.8369 36.7415 28.5023 36.4072 28.0898 36.4072H22.9102C22.4977 36.4072 22.1631 36.7415 22.1631 37.1543C22.1631 37.5671 22.4977 37.9014 22.9102 37.9014H28.0898C28.5023 37.9014 28.8369 37.5671 28.8369 37.1543Z" fill="white"/>
<path d="M36.7559 26.7451C34.5041 26.7451 32.6719 28.5774 32.6719 30.8291C32.6719 33.0808 34.5041 34.9131 36.7559 34.9131C39.0076 34.9131 40.8398 33.0808 40.8398 30.8291C40.8398 28.5774 39.0076 26.7451 36.7559 26.7451ZM36.7559 33.4189C35.3279 33.4189 34.166 32.2571 34.166 30.8291C34.166 29.4011 35.3279 28.2393 36.7559 28.2393C38.1839 28.2393 39.3457 29.4011 39.3457 30.8291C39.3457 32.2571 38.1839 33.4189 36.7559 33.4189Z" fill="white"/>
<path d="M34.166 36.4072C33.7536 36.4072 33.4189 36.7415 33.4189 37.1543C33.4189 37.5671 33.7536 37.9014 34.166 37.9014H39.3457C39.7581 37.9014 40.0928 37.5671 40.0928 37.1543C40.0928 36.7415 39.7581 36.4072 39.3457 36.4072H34.166Z" fill="white"/>
<path d="M10.0605 46.7666C10.0605 47.4534 10.6189 48.0117 11.3057 48.0117H22.96C23.6467 48.0117 24.2051 47.4534 24.2051 46.7666V41.0889C24.2051 40.4021 23.6467 39.8438 22.96 39.8438H11.3057C10.6189 39.8438 10.0605 40.4021 10.0605 41.0889V46.7666ZM15.4247 46.5176L16.604 45.3382C16.8955 45.0468 17.3694 45.0472 17.6608 45.3382L18.8402 46.5176H15.4247ZM11.5547 41.3379H22.7109V46.5176H20.953L18.7172 44.2818C17.8433 43.4079 16.4215 43.4079 15.5476 44.2818L13.3115 46.5176H11.5547V41.3379Z" fill="white"/>
<path d="M26.7949 41.0889V46.7666C26.7949 47.4534 27.3533 48.0117 28.04 48.0117H39.6943C40.3811 48.0117 40.9395 47.4534 40.9395 46.7666V41.0889C40.9395 40.4021 40.3811 39.8438 39.6943 39.8438H28.04C27.3533 39.8438 26.7949 40.4021 26.7949 41.0889ZM32.159 46.5176L33.3384 45.3382C33.6298 45.0468 34.1038 45.0472 34.3952 45.3382L35.5746 46.5176H32.159ZM28.2891 41.3379H39.4453V46.5176H37.6874L35.4516 44.2818C34.5777 43.4079 33.1559 43.4079 32.282 44.2818L30.0458 46.5176H28.2891V41.3379Z" fill="white"/>
</svg>
