<svg width="51" height="51" viewBox="0 0 51 51" fill="none" xmlns="http://www.w3.org/2000/svg">
<g clip-path="url(#clip0_24:75)">
<path d="M39.899 46.8011V39.1001H38.199V42.5001H12.7637L12.7492 40.7926L11.0492 40.8076L11.0994 46.8011C11.1023 49.1191 12.9812 50.9976 15.2992 51.0001H35.6992C38.0176 50.9976 39.8965 49.1191 39.899 46.8011ZM35.6992 49.3001H15.2992C13.9171 49.2976 12.7982 48.1758 12.7994 46.7933L12.7782 44.2001H38.199V46.8011C38.1973 48.1807 37.0792 49.2989 35.6992 49.3001Z" fill="white"/>
<path d="M30.5992 8.4999V10.1999H38.199V11.8999H39.899V7.59885C39.8965 5.28086 38.0176 3.40239 35.6992 3.3999H30.5992V5.0999H35.6992C37.0792 5.10115 38.1973 6.21926 38.199 7.59885V8.4999H30.5992Z" fill="white"/>
<path d="M24.6492 45.8999H26.3492V47.5999H24.6492V45.8999Z" fill="white"/>
<path d="M5.09918 3.4V13.6C5.09918 15.4776 6.62155 17 8.49918 17H14.1943L19.0802 20.2572C19.3408 20.4299 19.6754 20.4452 19.9509 20.2975C20.2265 20.1497 20.3988 19.8625 20.3992 19.55V17H25.4992C27.3772 17 28.8992 15.4776 28.8992 13.6V3.4C28.8992 1.52236 27.3772 0 25.4992 0H8.49918C6.62155 0 5.09918 1.52236 5.09918 3.4ZM27.1992 3.4V13.6C27.1992 14.5388 26.438 15.3 25.4992 15.3H19.5492C19.0798 15.3 18.6992 15.6806 18.6992 16.15V17.9621L14.9211 15.4428C14.7812 15.3498 14.6173 15.3004 14.4492 15.3H8.49918C7.56036 15.3 6.79918 14.5388 6.79918 13.6V3.4C6.79918 2.46118 7.56036 1.7 8.49918 1.7H25.4992C26.438 1.7 27.1992 2.46118 27.1992 3.4Z" fill="white"/>
<path d="M10.1992 13.6003H18.6992C19.1686 13.6003 19.5492 13.2197 19.5492 12.7503V11.5757L23.4194 13.5152C23.6834 13.6472 23.9976 13.6326 24.2483 13.4766C24.4989 13.3205 24.6508 13.0458 24.6492 12.7503V4.25025C24.6496 3.95557 24.4969 3.68206 24.2466 3.52684C23.9959 3.37203 23.683 3.35792 23.4194 3.48948L19.5492 5.42481V4.25025C19.5492 3.78084 19.1686 3.40025 18.6992 3.40025H10.1992C9.72977 3.40025 9.34918 3.78084 9.34918 4.25025V12.7503C9.34918 13.2197 9.72977 13.6003 10.1992 13.6003ZM11.0492 5.10025H17.8492V6.80025C17.8492 7.09493 18.0015 7.36844 18.2522 7.52366C18.5029 7.67847 18.8158 7.69258 19.0794 7.56102L22.9492 5.62569V11.3748L19.0794 9.43948C18.8158 9.30792 18.5029 9.32203 18.2522 9.47684C18.0015 9.63206 17.8492 9.90557 17.8492 10.2003V11.9003H11.0492V5.10025Z" fill="white"/>
<path d="M39.0991 13.6001C34.874 13.5947 30.9639 15.833 28.8294 19.4791C26.6948 23.1253 26.6566 27.6305 28.7293 31.3123L26.4616 35.2751C26.2926 35.5706 26.3163 35.9388 26.5222 36.2102C26.7276 36.4812 27.0754 36.6036 27.4058 36.5211L32.351 35.2847C34.3307 36.6642 36.6861 37.4026 39.0991 37.4001C45.6712 37.4001 50.9991 32.0723 50.9991 25.5001C50.9991 18.928 45.6712 13.6001 39.0991 13.6001ZM39.0991 35.7001C36.9127 35.7026 34.7843 34.9958 33.0337 33.6855C32.8864 33.5751 32.7075 33.5158 32.5236 33.5158C32.4539 33.5153 32.3846 33.5236 32.3169 33.5411L28.9223 34.3911L30.4447 31.7265C30.5999 31.4551 30.5941 31.1206 30.4293 30.8549C27.9947 26.9046 28.5368 21.8079 31.7471 18.4573C34.9578 15.1071 40.0263 14.3484 44.0775 16.612C48.1283 18.8757 50.1383 23.5901 48.9675 28.0804C47.7962 32.5707 43.7396 35.703 39.0991 35.7001Z" fill="white"/>
<path d="M43.8593 22.9501H42.4992V21.2501C42.4992 19.3725 40.9772 17.8501 39.0992 17.8501C38.1604 17.8501 37.3992 18.6113 37.3992 19.5501V21.7481L36.1972 22.9501H33.1492C32.6798 22.9501 32.2992 23.3307 32.2992 23.8001V30.6001C32.2992 31.0695 32.6798 31.4501 33.1492 31.4501H43.8593C44.9861 31.4501 45.8992 30.5366 45.8992 29.4102V24.99C45.8992 23.8636 44.9861 22.9501 43.8593 22.9501ZM33.9992 24.6501H35.6992V29.7501H33.9992V24.6501ZM44.1992 29.4102C44.1992 29.5978 44.0469 29.7501 43.8593 29.7501H37.3992V24.1521L38.8502 22.7011C39.0095 22.5417 39.0992 22.3255 39.0992 22.1001V19.5501C40.038 19.5501 40.7992 20.3113 40.7992 21.2501V22.9501C40.3298 22.9501 39.9492 23.3307 39.9492 23.8001C39.9492 24.2695 40.3298 24.6501 40.7992 24.6501H43.8593C44.0469 24.6501 44.1992 24.8024 44.1992 24.99V29.4102Z" fill="white"/>
<path d="M10.199 39.0998C12.3804 39.0969 14.5037 38.3963 16.2585 37.1006L20.1686 38.2174C20.4932 38.3104 20.8418 38.2029 21.0572 37.9435C21.2726 37.6841 21.3141 37.3214 21.163 37.02L19.351 33.4046C21.3623 29.319 20.4218 24.3954 17.0459 21.3386C13.6703 18.2823 8.67742 17.8336 4.81092 20.2396C0.944416 22.6456 -0.858928 27.3231 0.391999 31.7017C1.64334 36.0804 5.64515 39.0994 10.199 39.0998ZM10.199 20.3998C13.2022 20.3998 15.9825 21.9848 17.5128 24.5693C19.043 27.1533 19.0957 30.3533 17.6518 32.9867C17.5178 33.2311 17.5119 33.5258 17.6365 33.7753L18.7749 36.0518L16.3096 35.3478C16.0444 35.2731 15.7592 35.3317 15.5447 35.5051C14.036 36.737 12.1467 37.4069 10.199 37.3998C5.50445 37.3998 1.69896 33.5943 1.69896 28.8998C1.69896 24.2053 5.50445 20.3998 10.199 20.3998Z" fill="white"/>
<path d="M4.80776 30.6851L9.66039 34.6595C9.97375 34.9164 10.4249 34.9164 10.7382 34.6595L15.5909 30.6851C16.384 30.0434 16.8858 29.1096 16.9829 28.094C17.0776 27.0917 16.7638 26.0931 16.1126 25.3248C15.3859 24.4736 14.342 23.9577 13.2247 23.8971C12.107 23.8365 11.0138 24.237 10.1991 25.0044C9.37983 24.237 8.28246 23.8378 7.16144 23.8996C6.04748 23.9585 5.00739 24.4744 4.28564 25.3248C3.63444 26.0931 3.32067 27.0917 3.4153 28.094C3.51242 29.1096 4.0142 30.0434 4.80776 30.6851ZM5.58969 26.4156C6.00888 25.9246 6.61193 25.6282 7.25649 25.5967H7.39179C7.99899 25.5942 8.5842 25.825 9.02621 26.2413L9.61183 26.8003C9.94054 27.1145 10.4581 27.1145 10.7864 26.8003L11.3724 26.2413C11.8464 25.798 12.4802 25.5668 13.1285 25.6004C13.7768 25.6341 14.3831 25.93 14.809 26.4197C15.1671 26.841 15.3406 27.3888 15.2908 27.9396C15.2352 28.5028 14.9546 29.0204 14.513 29.3744L10.1991 32.901L5.88561 29.3673C5.4436 29.0133 5.16344 28.4962 5.10783 27.9325C5.05761 27.3818 5.23151 26.8343 5.58969 26.4131V26.4156Z" fill="white"/>
</g>
<defs>
<clipPath id="clip0_24:75">
<rect width="51" height="51" fill="white"/>
</clipPath>
</defs>
</svg>
