<svg width="51" height="51" viewBox="0 0 51 51" fill="none" xmlns="http://www.w3.org/2000/svg">
<path d="M21.9734 44.0425V30.9986C21.9734 30.5491 21.6091 30.1848 21.1596 30.1848H15.7341C15.2845 30.1848 14.9202 30.5491 14.9202 30.9986C14.9202 31.4482 15.2845 31.8125 15.7341 31.8125H20.3458V44.0425C18.7924 44.411 17.633 45.8088 17.633 47.4733C17.633 49.4179 19.215 50.9999 21.1596 50.9999C23.1042 50.9999 24.6862 49.4179 24.6862 47.4733C24.6862 45.8088 23.5267 44.411 21.9734 44.0425ZM21.1596 49.3722C20.1126 49.3722 19.2607 48.5203 19.2607 47.4733C19.2607 46.4263 20.1126 45.5743 21.1596 45.5743C22.2066 45.5743 23.0585 46.4263 23.0585 47.4733C23.0585 48.5203 22.2066 49.3722 21.1596 49.3722Z" fill="black"/>
<path d="M30.6542 44.0425V30.9986C30.6542 30.5491 30.29 30.1848 29.8404 30.1848H24.415C23.9654 30.1848 23.6012 30.5491 23.6012 30.9986C23.6012 31.4482 23.9654 31.8125 24.415 31.8125H29.0266V44.0425C27.4733 44.411 26.3138 45.8088 26.3138 47.4733C26.3138 49.4179 27.8958 50.9999 29.8404 50.9999C31.785 50.9999 33.367 49.4179 33.367 47.4733C33.367 45.8088 32.2076 44.411 30.6542 44.0425ZM29.8404 49.3722C28.7934 49.3722 27.9415 48.5203 27.9415 47.4733C27.9415 46.4263 28.7934 45.5743 29.8404 45.5743C30.8874 45.5743 31.7394 46.4263 31.7394 47.4733C31.7394 48.5203 30.8874 49.3722 29.8404 49.3722Z" fill="black"/>
<path d="M44.4894 38.5211C42.8249 38.5211 41.4271 39.6806 41.0586 41.2339H39.3351V30.9986C39.3351 30.5491 38.9708 30.1848 38.5213 30.1848H33.0958C32.6462 30.1848 32.2819 30.5491 32.2819 30.9986C32.2819 31.4482 32.6462 31.8125 33.0958 31.8125H37.7075V42.0477C37.7075 42.4973 38.0717 42.8616 38.5213 42.8616H41.0586C41.4271 44.4149 42.8249 45.5743 44.4894 45.5743C46.434 45.5743 48.016 43.9924 48.016 42.0477C48.016 40.1031 46.434 38.5211 44.4894 38.5211ZM44.4894 43.9467C43.4423 43.9467 42.5904 43.0948 42.5904 42.0477C42.5904 41.0007 43.4423 40.1488 44.4894 40.1488C45.5364 40.1488 46.3883 41.0007 46.3883 42.0477C46.3883 43.0948 45.5364 43.9467 44.4894 43.9467Z" fill="black"/>
<path d="M49.0621 17.5307C47.9653 16.1688 46.4755 15.1599 44.8179 14.6451C44.6313 10.7927 43.0329 7.19827 40.2778 4.46619C37.3734 1.5861 33.5213 0 29.4309 0C24.0595 0 19.0892 2.80088 16.294 7.35561C15.6142 7.1413 14.9077 7.03312 14.1852 7.03312C10.8607 7.03312 8.0019 9.37977 7.31253 12.5786C3.04307 13.6861 0 17.5774 0 22.0386C0 27.428 4.38448 31.8126 9.77388 31.8126H11.6649V41.234H9.94142C9.57292 39.6807 8.17508 38.5213 6.51064 38.5213C4.56602 38.5213 2.98404 40.1033 2.98404 42.0479C2.98404 43.9925 4.56602 45.5745 6.51064 45.5745C8.17508 45.5745 9.57292 44.415 9.94142 42.8617H12.4787C12.9283 42.8617 13.2926 42.4974 13.2926 42.0479V30.9988C13.2926 30.5492 12.9283 30.1849 12.4787 30.1849H9.77388C5.28208 30.1849 1.62766 26.5305 1.62766 22.0386C1.62766 18.1623 4.38329 14.8023 8.17986 14.0493C8.52221 13.9815 8.78329 13.7028 8.82853 13.3567C9.17892 10.6796 11.4817 8.66089 14.1852 8.66089C14.9289 8.66089 15.6502 8.80987 16.3289 9.10361C16.7137 9.27017 17.1617 9.11717 17.3644 8.75051C19.7933 4.35692 24.417 1.62766 29.4309 1.62766C36.9598 1.62766 43.1401 7.75178 43.2081 15.2796C43.2114 15.6557 43.4721 15.9804 43.8384 16.0651C47.0968 16.8191 49.3724 19.684 49.3724 23.0318C49.3724 26.9761 46.1637 30.1849 42.2194 30.1849H41.7766C41.327 30.1849 40.9628 30.5492 40.9628 30.9988C40.9628 31.4483 41.327 31.8126 41.7766 31.8126H42.2193C47.061 31.8126 51 27.8736 51 23.0318C51 21.0358 50.3117 19.082 49.0621 17.5307ZM6.51064 43.9468C5.46362 43.9468 4.6117 43.0949 4.6117 42.0479C4.6117 41.0009 5.46362 40.1489 6.51064 40.1489C7.55766 40.1489 8.40957 41.0009 8.40957 42.0479C8.40957 43.0949 7.55766 43.9468 6.51064 43.9468Z" fill="black"/>
<path d="M39.6815 16.1253H39.6889C40.1384 16.1212 40.4994 15.7536 40.4954 15.3041C40.4832 13.9636 40.2302 12.6518 39.7433 11.4052C39.5797 10.9866 39.1079 10.7797 38.6891 10.9432C38.2704 11.1067 38.0636 11.5786 38.2271 11.9974C38.6418 13.059 38.8573 14.1766 38.8676 15.3189C38.8719 15.7659 39.2354 16.1253 39.6815 16.1253Z" fill="black"/>
<path d="M36.7068 9.41386C36.8677 9.60874 37.1002 9.70944 37.3346 9.70944C37.5172 9.70944 37.7008 9.64835 37.8524 9.52302C38.1989 9.23677 38.2479 8.72384 37.9616 8.37725C35.8424 5.81174 32.733 4.34033 29.431 4.34033C28.9815 4.34033 28.6172 4.7046 28.6172 5.15416C28.6172 5.60372 28.9815 5.96799 29.431 5.96799C32.2458 5.96799 34.8977 7.22389 36.7068 9.41386Z" fill="black"/>
</svg>
