<svg width="48" height="48" viewBox="0 0 48 48" fill="none" xmlns="http://www.w3.org/2000/svg">
<path d="M28.6874 38.25C27.9587 38.251 27.2525 38.5025 26.6873 38.9624C26.2196 38.5829 25.6539 38.3436 25.0558 38.2724C24.4578 38.2011 23.8517 38.3008 23.308 38.5598C22.7642 38.8188 22.305 39.2266 21.9834 39.7359C21.6619 40.2452 21.4912 40.8352 21.4912 41.4375C21.4912 42.0398 21.6619 42.6298 21.9834 43.1391C22.305 43.6484 22.7642 44.0562 23.308 44.3152C23.8517 44.5742 24.4578 44.6739 25.0558 44.6026C25.6539 44.5314 26.2196 44.2921 26.6873 43.9126C27.0837 44.2343 27.5516 44.4561 28.0517 44.5593C28.5517 44.6624 29.0692 44.644 29.5606 44.5054C30.052 44.3669 30.503 44.1124 30.8755 43.7632C31.248 43.4141 31.5312 42.9805 31.7013 42.4991C31.8713 42.0177 31.9232 41.5025 31.8526 40.9968C31.782 40.4912 31.591 40.0099 31.2956 39.5934C31.0003 39.177 30.6092 38.8376 30.1553 38.6038C29.7014 38.37 29.198 38.2487 28.6874 38.25ZM24.703 43.0313C24.3878 43.0313 24.0797 42.9378 23.8176 42.7627C23.5555 42.5876 23.3512 42.3386 23.2306 42.0474C23.11 41.7562 23.0784 41.4357 23.1399 41.1266C23.2014 40.8174 23.3532 40.5335 23.5761 40.3106C23.799 40.0877 24.0829 39.9359 24.3921 39.8744C24.7013 39.8129 25.0217 39.8445 25.3129 39.9651C25.6042 40.0857 25.8531 40.29 26.0282 40.5521C26.2033 40.8142 26.2968 41.1223 26.2968 41.4375C26.2968 41.8602 26.1289 42.2656 25.83 42.5645C25.5311 42.8634 25.1257 43.0313 24.703 43.0313ZM28.6874 43.0313C28.3065 43.0323 27.9383 42.8946 27.6515 42.644C27.8103 42.2616 27.8921 41.8516 27.8921 41.4375C27.8921 41.0234 27.8103 40.6134 27.6515 40.231C27.9383 39.9804 28.3065 39.8428 28.6874 39.8438C29.1101 39.8438 29.5155 40.0117 29.8144 40.3106C30.1132 40.6094 30.2812 41.0148 30.2812 41.4375C30.2812 41.8602 30.1132 42.2656 29.8144 42.5645C29.5155 42.8634 29.1101 43.0313 28.6874 43.0313Z" fill="white"/>
<path d="M16.7344 39.8438H5.57812C5.36678 39.8438 5.16409 39.9277 5.01465 40.0771C4.86521 40.2266 4.78125 40.4293 4.78125 40.6406V43.8281C4.78125 44.0395 4.86521 44.2422 5.01465 44.3916C5.16409 44.541 5.36678 44.625 5.57812 44.625H16.7344C16.9457 44.625 17.1484 44.541 17.2979 44.3916C17.4473 44.2422 17.5312 44.0395 17.5312 43.8281V40.6406C17.5312 40.4293 17.4473 40.2266 17.2979 40.0771C17.1484 39.9277 16.9457 39.8438 16.7344 39.8438ZM15.9375 43.0312H6.375V41.4375H15.9375V43.0312Z" fill="white"/>
<path d="M31.875 3.98438H33.4688C33.6801 3.98438 33.8828 3.90042 34.0322 3.75098C34.1817 3.60153 34.2656 3.39884 34.2656 3.1875C34.2656 2.97616 34.1817 2.77347 34.0322 2.62402C33.8828 2.47458 33.6801 2.39062 33.4688 2.39062H31.875C31.6637 2.39062 31.461 2.47458 31.3115 2.62402C31.1621 2.77347 31.0781 2.97616 31.0781 3.1875C31.0781 3.39884 31.1621 3.60153 31.3115 3.75098C31.461 3.90042 31.6637 3.98438 31.875 3.98438Z" fill="white"/>
<path d="M43.8281 0H21.5156C20.4593 0.00126532 19.4466 0.421453 18.6996 1.16839C17.9527 1.91534 17.5325 2.92804 17.5312 3.98438V25.5H3.98438C2.92804 25.5013 1.91534 25.9215 1.16839 26.6684C0.421453 27.4153 0.00126532 28.428 0 29.4844V43.8281C0.00126532 44.8845 0.421453 45.8972 1.16839 46.6441C1.91534 47.391 2.92804 47.8112 3.98438 47.8125H43.8281C44.8845 47.8112 45.8972 47.391 46.6441 46.6441C47.391 45.8972 47.8112 44.8845 47.8125 43.8281V3.98438C47.8112 2.92804 47.391 1.91534 46.6441 1.16839C45.8972 0.421453 44.8845 0.00126532 43.8281 0ZM21.5156 1.59375H43.8281C44.4622 1.59375 45.0702 1.84562 45.5186 2.29395C45.9669 2.74228 46.2188 3.35034 46.2188 3.98438V4.78125H19.125V3.98438C19.125 3.35034 19.3769 2.74228 19.8252 2.29395C20.2735 1.84562 20.8816 1.59375 21.5156 1.59375ZM19.125 6.375H46.2188V39.8438H35.0625V29.4844C35.0612 28.428 34.641 27.4153 33.8941 26.6684C33.1472 25.9215 32.1345 25.5013 31.0781 25.5H19.125V6.375ZM1.59375 31.875H33.4688V33.4688H1.59375V31.875ZM3.98438 27.0938H31.0781C31.7122 27.0938 32.3202 27.3456 32.7686 27.7939C33.2169 28.2423 33.4688 28.8503 33.4688 29.4844V30.2812H1.59375V29.4844C1.59375 28.8503 1.84562 28.2423 2.29395 27.7939C2.74228 27.3456 3.35034 27.0938 3.98438 27.0938ZM1.59375 43.8281V35.0625H33.4688V43.8281C33.4688 44.4622 33.2169 45.0702 32.7686 45.5186C32.3202 45.9669 31.7122 46.2188 31.0781 46.2188H3.98438C3.35034 46.2188 2.74228 45.9669 2.29395 45.5186C1.84562 45.0702 1.59375 44.4622 1.59375 43.8281ZM43.8281 46.2188H34.2449C34.7723 45.5331 35.0596 44.6931 35.0625 43.8281V41.4375H46.2188V43.8281C46.2188 44.4622 45.9669 45.0702 45.5186 45.5186C45.0702 45.9669 44.4622 46.2188 43.8281 46.2188Z" fill="white"/>
<path d="M39.8438 20.7188V12.75C39.8438 12.5387 39.7598 12.336 39.6104 12.1865C39.4609 12.0371 39.2582 11.9531 39.0469 11.9531H36.6562C36.6562 10.8964 36.2365 9.88296 35.4893 9.13575C34.742 8.38853 33.7286 7.96875 32.6719 7.96875C31.6152 7.96875 30.6017 8.38853 29.8545 9.13575C29.1073 9.88296 28.6875 10.8964 28.6875 11.9531H26.2969C26.0855 11.9531 25.8828 12.0371 25.7334 12.1865C25.584 12.336 25.5 12.5387 25.5 12.75V20.7188C25.5013 21.7751 25.9215 22.7878 26.6684 23.5347C27.4153 24.2817 28.428 24.7019 29.4844 24.7031H35.8594C36.9157 24.7019 37.9284 24.2817 38.6754 23.5347C39.4223 22.7878 39.8425 21.7751 39.8438 20.7188ZM32.6719 9.5625C33.3059 9.5625 33.914 9.81437 34.3623 10.2627C34.8106 10.711 35.0625 11.3191 35.0625 11.9531H30.2812C30.2812 11.3191 30.5331 10.711 30.9814 10.2627C31.4298 9.81437 32.0378 9.5625 32.6719 9.5625ZM27.0938 20.7188V13.5469H28.6875V15.1406C28.6875 15.352 28.7715 15.5547 28.9209 15.7041C29.0703 15.8535 29.273 15.9375 29.4844 15.9375C29.6957 15.9375 29.8984 15.8535 30.0479 15.7041C30.1973 15.5547 30.2812 15.352 30.2812 15.1406V13.5469H35.0625V15.1406C35.0625 15.352 35.1465 15.5547 35.2959 15.7041C35.4453 15.8535 35.648 15.9375 35.8594 15.9375C36.0707 15.9375 36.2734 15.8535 36.4229 15.7041C36.5723 15.5547 36.6562 15.352 36.6562 15.1406V13.5469H38.25V20.7188C38.25 21.3528 37.9981 21.9608 37.5498 22.4092C37.1015 22.8575 36.4934 23.1094 35.8594 23.1094H29.4844C28.8503 23.1094 28.2423 22.8575 27.7939 22.4092C27.3456 21.9608 27.0938 21.3528 27.0938 20.7188Z" fill="white"/>
</svg>
