<svg width="51" height="51" viewBox="0 0 51 51" fill="none" xmlns="http://www.w3.org/2000/svg">
<g clip-path="url(#clip0_24:34)">
<path d="M48.3319 19.396C50.4399 16.8183 51.3618 13.4707 50.8709 10.1773C49.9182 3.67665 43.8762 -0.82097 37.3755 0.131682C34.4447 0.56122 31.7794 2.06864 29.9013 4.35919C28.4187 6.25281 25.9611 7.09734 23.6277 6.51495C21.6657 5.96985 19.6144 5.82306 17.5947 6.08329C10.7663 7.00525 5.37789 12.3445 4.39326 19.164C3.97063 22.2085 4.48078 25.3096 5.8565 28.0581C2.57505 28.1055 -0.0466794 30.804 0.000693035 34.0854C0.0432857 37.0383 2.24812 39.5118 5.17671 39.8923L6.09357 49.2963C6.09357 50.2349 6.8544 50.9957 7.79303 50.9957H12.7512C13.2473 50.9953 13.7186 50.778 14.0411 50.4009C14.3767 50.0002 14.5141 49.4696 14.415 48.9564L12.1428 39.9492H12.5677C13.5075 39.9543 14.446 40.0219 15.3769 40.1515C18.4266 46.7632 25.0435 50.9971 32.3247 50.9957C32.8855 50.9957 33.452 50.9706 34.0242 50.9201C43.0388 50.0301 50.1426 42.8482 50.9338 33.8244C51.2669 29.8199 50.291 25.8155 48.1526 22.4134C47.5592 21.4733 47.6313 20.2593 48.3319 19.396ZM5.10363 38.1648C2.80406 37.6979 1.31852 35.4552 1.78544 33.1557C2.12491 31.4837 3.43169 30.1769 5.10363 29.8375V38.1648ZM12.7512 49.2963L7.78878 49.2113L6.88807 39.9492H10.3881L12.7512 49.2963ZM6.80309 38.2498V29.7525H8.50255V38.2498H6.80309ZM12.5651 38.2498H10.202V29.7525H12.5651C15.0311 29.7533 17.481 29.3557 19.8201 28.5748L23.7977 27.2492V40.7531L19.8201 39.4275C17.481 38.6467 15.0311 38.2489 12.5651 38.2498ZM49.2343 33.6876C48.4837 43.0283 40.3031 49.992 30.9624 49.2415C25.287 48.7854 20.2188 45.5133 17.4672 40.5288C18.0773 40.6741 18.684 40.8398 19.2831 41.0386L28.6301 44.1537C28.7158 44.1824 28.8057 44.1973 28.896 44.1979C29.3653 44.1979 29.7458 43.8174 29.7458 43.3482V39.0995C31.6229 39.0995 33.1447 37.5778 33.1447 35.7006V32.3017C33.1447 30.4245 31.6229 28.9028 29.7458 28.9028V24.6541C29.7459 24.1849 29.3655 23.8043 28.8963 23.8042C28.8049 23.8042 28.7142 23.8188 28.6275 23.8477L19.2805 26.9628C17.1153 27.6851 14.8477 28.0532 12.5651 28.053H7.79303C6.26532 25.4381 5.66106 22.3856 6.07742 19.3858C7.10432 11.9525 13.9627 6.75893 21.396 7.78572C21.9944 7.86836 22.5867 7.99093 23.1689 8.15238C26.1513 8.91724 29.3044 7.8536 31.2141 5.43835C34.7716 1.07679 41.1912 0.424945 45.5529 3.98234C49.9145 7.53973 50.5664 13.9594 47.0089 18.3211C45.8491 19.749 45.7278 21.757 46.7072 23.3141C48.6506 26.4071 49.5373 30.0474 49.2343 33.6876ZM25.4971 41.3199V26.6824L28.0463 25.8327V42.1696L25.4971 41.3199ZM29.7458 37.4001V30.6022C30.6844 30.6022 31.4452 31.3631 31.4452 32.3017V35.7006C31.4452 36.6392 30.6843 37.4001 29.7458 37.4001Z" fill="white"/>
<path d="M15.3005 34.8506H11.9016V36.55H15.3005V34.8506Z" fill="white"/>
<path d="M15.3005 31.4517H11.9016V33.1511H15.3005V31.4517Z" fill="white"/>
<path d="M43.199 11.4367C43.1368 11.3434 43.0568 11.2633 42.9634 11.2011L37.8651 7.80216C37.4747 7.54171 36.947 7.64697 36.6866 8.03742C36.5934 8.1771 36.5437 8.3412 36.5437 8.50913V15.307C36.5436 15.6204 36.716 15.9085 36.9924 16.0564C37.2689 16.2044 37.6043 16.188 37.8651 16.0139L42.9634 12.615C43.3539 12.3547 43.4594 11.8271 43.199 11.4367ZM38.2432 13.7188V10.0973L40.9623 11.908L38.2432 13.7188Z" fill="white"/>
<path d="M39.0929 4.26074C34.8693 4.26074 31.4453 7.68462 31.4453 11.9083C31.45 16.13 34.8712 19.5512 39.0929 19.5559C43.3166 19.5559 46.7405 16.1319 46.7405 11.9083C46.7405 7.68473 43.3165 4.26074 39.0929 4.26074ZM39.0929 17.8564C35.8079 17.8564 33.1448 15.1934 33.1448 11.9083C33.1485 8.62484 35.8094 5.96392 39.0929 5.9602C42.378 5.9602 45.041 8.62325 45.041 11.9083C45.041 15.1934 42.378 17.8564 39.0929 17.8564Z" fill="white"/>
<path d="M22.0983 15.307H21.2486C20.7793 15.307 20.3989 14.9265 20.3989 14.4573V11.9081C20.3989 10.5002 19.2576 9.35889 17.8497 9.35889C16.4418 9.35889 15.3005 10.5002 15.3005 11.9081V14.4573C15.3005 14.9265 14.92 15.307 14.4508 15.307C14.4508 14.8377 14.0703 14.4573 13.601 14.4573H10.2021C9.73285 14.4573 9.35239 14.8377 9.35239 15.307V24.654C9.35239 25.1233 9.73285 25.5037 10.2021 25.5037H13.601C14.0703 25.5037 14.4508 25.1233 14.4508 24.654H22.0983C23.5062 24.654 24.6475 23.5127 24.6475 22.1048V17.8562C24.6475 16.4484 23.5062 15.307 22.0983 15.307ZM12.7513 23.8043H11.0518V16.1567H12.7513V23.8043ZM22.9481 22.1048C22.9481 22.5741 22.5676 22.9546 22.0983 22.9546H14.4508V17.0064C15.8587 17.0064 16.9999 15.8652 16.9999 14.4573V11.9081C16.9999 11.4388 17.3804 11.0583 17.8497 11.0583C18.3189 11.0583 18.6994 11.4388 18.6994 11.9081V14.4573C18.6994 15.8652 19.8407 17.0064 21.2486 17.0064H22.0983C22.5676 17.0064 22.9481 17.3869 22.9481 17.8562V22.1048Z" fill="white"/>
<path d="M46.8421 30.8586L46.4801 30.4949C45.6191 29.6396 44.2756 29.5068 43.2639 30.1771L42.3453 30.7898L41.4268 30.1771C40.4152 29.5062 39.0712 29.6389 38.2106 30.4949L37.8469 30.8586C36.8517 31.8541 36.8517 33.4677 37.8469 34.4631L41.7437 38.3592C42.0756 38.6909 42.6134 38.6909 42.9453 38.3592L46.8421 34.4631C47.8372 33.4677 47.8372 31.8541 46.8421 30.8586ZM45.6421 33.261C45.6419 33.2612 45.6417 33.2614 45.6414 33.2616L42.3453 36.5569L39.0501 33.265C38.7184 32.9332 38.7184 32.3953 39.0501 32.0635L39.4129 31.7007C39.6994 31.4141 40.1483 31.3697 40.4853 31.5945L41.8746 32.5207C42.1601 32.7112 42.5323 32.7112 42.8178 32.5207L44.208 31.5945C44.5447 31.3699 44.993 31.414 45.2795 31.6998V31.6964L45.6414 32.0593C45.9735 32.391 45.9738 32.929 45.6421 33.261Z" fill="white"/>
<path d="M33.1723 22.7493L32.3217 26.1479L33.9695 26.5604L34.8201 23.1617L33.1723 22.7493Z" fill="white"/>
<path d="M37.8622 25.5931L34.4635 27.2925L35.2235 28.8125L38.6222 27.1131L37.8622 25.5931Z" fill="white"/>
<path d="M33.9649 42.2922L32.317 42.7041L33.1666 46.1028L34.8145 45.6909L33.9649 42.2922Z" fill="white"/>
<path d="M35.2229 40.0381L34.4629 41.5581L37.8616 43.2575L38.6216 41.7375L35.2229 40.0381Z" fill="white"/>
<path d="M0.855072 22.9545H2.55453C2.55453 11.4237 9.3923 4.26049 20.3988 4.26049V2.56104C8.34373 2.56104 0.855072 10.3785 0.855072 22.9545Z" fill="white"/>
</g>
<defs>
<clipPath id="clip0_24:34">
<rect width="51" height="51" fill="white"/>
</clipPath>
</defs>
</svg>
