<svg width="51" height="51" viewBox="0 0 51 51" fill="none" xmlns="http://www.w3.org/2000/svg">
<g clip-path="url(#clip0_24:242)">
<path d="M48.3319 19.396C50.4399 16.8183 51.3618 13.4707 50.8709 10.1773C49.9182 3.67665 43.8762 -0.82097 37.3755 0.131682C34.4447 0.56122 31.7794 2.06864 29.9013 4.35919C28.4187 6.25281 25.9611 7.09734 23.6277 6.51495C21.6657 5.96985 19.6144 5.82306 17.5947 6.08329C10.7663 7.00525 5.37789 12.3445 4.39326 19.164C3.97063 22.2085 4.48078 25.3096 5.8565 28.0581C2.57505 28.1055 -0.0466794 30.804 0.000693035 34.0854C0.0432857 37.0383 2.24812 39.5118 5.17671 39.8923L6.09357 49.2963C6.09357 50.2349 6.8544 50.9957 7.79303 50.9957H12.7512C13.2473 50.9953 13.7186 50.778 14.0411 50.4009C14.3767 50.0002 14.5141 49.4696 14.415 48.9564L12.1428 39.9492H12.5677C13.5075 39.9543 14.446 40.0219 15.3769 40.1515C18.4266 46.7632 25.0435 50.9971 32.3247 50.9957C32.8855 50.9957 33.452 50.9706 34.0242 50.9201C43.0388 50.0301 50.1426 42.8482 50.9338 33.8244C51.2669 29.8199 50.291 25.8155 48.1526 22.4134C47.5592 21.4733 47.6313 20.2593 48.3319 19.396ZM5.10363 38.1648C2.80406 37.6979 1.31852 35.4552 1.78544 33.1557C2.12491 31.4837 3.43169 30.1769 5.10363 29.8375V38.1648ZM12.7512 49.2963L7.78878 49.2113L6.88807 39.9492H10.3881L12.7512 49.2963ZM6.80309 38.2498V29.7525H8.50255V38.2498H6.80309ZM12.5651 38.2498H10.202V29.7525H12.5651C15.0311 29.7533 17.481 29.3557 19.8201 28.5748L23.7977 27.2492V40.7531L19.8201 39.4275C17.481 38.6467 15.0311 38.2489 12.5651 38.2498ZM49.2343 33.6876C48.4837 43.0283 40.3031 49.992 30.9624 49.2415C25.287 48.7854 20.2188 45.5133 17.4672 40.5288C18.0773 40.6741 18.684 40.8398 19.2831 41.0386L28.6301 44.1537C28.7158 44.1824 28.8057 44.1973 28.896 44.1979C29.3653 44.1979 29.7458 43.8174 29.7458 43.3482V39.0995C31.6229 39.0995 33.1447 37.5778 33.1447 35.7006V32.3017C33.1447 30.4245 31.6229 28.9028 29.7458 28.9028V24.6541C29.7459 24.1849 29.3655 23.8043 28.8963 23.8042C28.8049 23.8042 28.7142 23.8188 28.6275 23.8477L19.2805 26.9628C17.1153 27.6851 14.8477 28.0532 12.5651 28.053H7.79303C6.26532 25.4381 5.66106 22.3856 6.07742 19.3858C7.10432 11.9525 13.9627 6.75893 21.396 7.78572C21.9944 7.86836 22.5867 7.99093 23.1689 8.15238C26.1513 8.91724 29.3044 7.8536 31.2141 5.43835C34.7716 1.07679 41.1912 0.424945 45.5529 3.98234C49.9145 7.53973 50.5664 13.9594 47.0089 18.3211C45.8491 19.749 45.7278 21.757 46.7072 23.3141C48.6506 26.4071 49.5373 30.0474 49.2343 33.6876ZM25.4971 41.3199V26.6824L28.0463 25.8327V42.1696L25.4971 41.3199ZM29.7458 37.4001V30.6022C30.6844 30.6022 31.4452 31.3631 31.4452 32.3017V35.7006C31.4452 36.6392 30.6843 37.4001 29.7458 37.4001Z" fill="black"/>
<path d="M15.3003 34.8508H11.9014V36.5503H15.3003V34.8508Z" fill="black"/>
<path d="M15.3003 31.4519H11.9014V33.1514H15.3003V31.4519Z" fill="black"/>
<path d="M43.1988 11.4367C43.1366 11.3434 43.0566 11.2633 42.9632 11.2011L37.8649 7.80216C37.4745 7.54171 36.9468 7.64697 36.6864 8.03742C36.5932 8.1771 36.5435 8.3412 36.5435 8.50913V15.307C36.5434 15.6204 36.7158 15.9085 36.9922 16.0564C37.2687 16.2044 37.6041 16.188 37.8649 16.0139L42.9632 12.615C43.3537 12.3547 43.4592 11.8271 43.1988 11.4367ZM38.243 13.7188V10.0973L40.9621 11.908L38.243 13.7188Z" fill="black"/>
<path d="M39.0927 4.2605C34.8691 4.2605 31.4451 7.68438 31.4451 11.9081C31.4498 16.1297 34.871 19.5509 39.0927 19.5556C43.3164 19.5556 46.7403 16.1316 46.7403 11.9081C46.7403 7.68448 43.3163 4.2605 39.0927 4.2605ZM39.0927 17.8562C35.8076 17.8562 33.1446 15.1931 33.1446 11.9081C33.1483 8.6246 35.8092 5.96367 39.0927 5.95996C42.3777 5.95996 45.0408 8.62301 45.0408 11.9081C45.0408 15.1931 42.3777 17.8562 39.0927 17.8562Z" fill="black"/>
<path d="M22.0981 15.307H21.2484C20.7791 15.307 20.3987 14.9265 20.3987 14.4573V11.9081C20.3987 10.5002 19.2574 9.35889 17.8495 9.35889C16.4416 9.35889 15.3003 10.5002 15.3003 11.9081V14.4573C15.3003 14.9265 14.9198 15.307 14.4505 15.307C14.4505 14.8377 14.0701 14.4573 13.6008 14.4573H10.2019C9.73264 14.4573 9.35217 14.8377 9.35217 15.307V24.654C9.35217 25.1233 9.73264 25.5038 10.2019 25.5038H13.6008C14.0701 25.5038 14.4505 25.1233 14.4505 24.654H22.0981C23.506 24.654 24.6473 23.5127 24.6473 22.1048V17.8562C24.6473 16.4484 23.506 15.307 22.0981 15.307ZM12.7511 23.8043H11.0516V16.1567H12.7511V23.8043ZM22.9478 22.1048C22.9478 22.5741 22.5674 22.9546 22.0981 22.9546H14.4505V17.0065C15.8584 17.0065 16.9997 15.8652 16.9997 14.4573V11.9081C16.9997 11.4388 17.3802 11.0583 17.8495 11.0583C18.3187 11.0583 18.6992 11.4388 18.6992 11.9081V14.4573C18.6992 15.8652 19.8405 17.0065 21.2484 17.0065H22.0981C22.5674 17.0065 22.9478 17.3869 22.9478 17.8562V22.1048Z" fill="black"/>
<path d="M46.8424 30.8589L46.4804 30.4952C45.6194 29.6398 44.2759 29.507 43.2641 30.1774L42.3456 30.79L41.427 30.1774C40.4154 29.5064 39.0715 29.6392 38.2108 30.4952L37.8471 30.8589C36.852 31.8543 36.852 33.4679 37.8471 34.4634L41.744 38.3594C42.0758 38.6911 42.6137 38.6911 42.9455 38.3594L46.8424 34.4634C47.8375 33.4679 47.8375 31.8543 46.8424 30.8589ZM45.6423 33.2612C45.6421 33.2615 45.6419 33.2617 45.6417 33.2619L42.3456 36.5571L39.0503 33.2653C38.7186 32.9335 38.7186 32.3956 39.0503 32.0638L39.4132 31.7009C39.6996 31.4144 40.1485 31.37 40.4855 31.5947L41.8748 32.5209C42.1603 32.7115 42.5325 32.7115 42.818 32.5209L44.2082 31.5947C44.5449 31.3702 44.9932 31.4143 45.2797 31.7001V31.6967L45.6417 32.0595C45.9737 32.3912 45.974 32.9292 45.6423 33.2612Z" fill="black"/>
<path d="M33.172 22.7495L32.3214 26.1482L33.9692 26.5606L34.8199 23.1619L33.172 22.7495Z" fill="black"/>
<path d="M37.862 25.5934L34.4633 27.2927L35.2233 28.8127L38.622 27.1134L37.862 25.5934Z" fill="black"/>
<path d="M33.9648 42.2917L32.317 42.7036L33.1666 46.1023L34.8144 45.6904L33.9648 42.2917Z" fill="black"/>
<path d="M35.2229 40.0381L34.4629 41.5581L37.8616 43.2575L38.6216 41.7375L35.2229 40.0381Z" fill="black"/>
<path d="M0.854858 22.9545H2.55432C2.55432 11.4237 9.39209 4.26049 20.3986 4.26049V2.56104C8.34352 2.56104 0.854858 10.3785 0.854858 22.9545Z" fill="black"/>
</g>
<defs>
<clipPath id="clip0_24:242">
<rect width="51" height="51" fill="white"/>
</clipPath>
</defs>
</svg>
