<svg width="51" height="52" viewBox="0 0 51 52" fill="none" xmlns="http://www.w3.org/2000/svg">
<path d="M44.0401 37.4408C44.3103 36.0062 44.3034 34.5331 44.0197 33.1011L47.9169 23.6959C47.9173 23.6896 47.9173 23.6834 47.9169 23.6771C48.5484 21.9481 49.4739 20.3412 50.6526 18.9273C50.9458 18.6175 51.0638 18.1811 50.9666 17.7658L49.3685 10.8648C49.3495 10.7927 49.3209 10.7234 49.2834 10.6589C49.2766 10.6462 49.2741 10.6308 49.2673 10.6189C49.2605 10.607 49.2307 10.5781 49.2137 10.556C49.1788 10.505 49.1386 10.4579 49.0937 10.4156C49.0641 10.3947 49.0331 10.376 49.0009 10.3594C48.9594 10.3289 48.9153 10.3021 48.869 10.2794C48.8049 10.2552 48.738 10.2389 48.6699 10.2309C48.6504 10.2309 48.6333 10.2182 48.6138 10.2164C48.4507 10.2056 48.2879 10.2419 48.1449 10.3211C48.1322 10.3279 48.1168 10.3305 48.1041 10.3381H48.0956L42.0872 14.0881C41.7234 14.3135 41.4975 14.7069 41.4865 15.1348C41.3196 16.972 40.8356 18.7665 40.0561 20.4385V20.4479L38.1083 25.156C37.1523 24.6478 36.1289 24.2783 35.0688 24.0584C35.4701 21.2886 35.6176 18.4879 35.5096 15.6913C37.0936 13.7908 37.8538 11.3368 37.6216 8.8737C37.0898 3.91454 32.608 0.333018 32.4165 0.182405C32.1288 -0.044201 31.7283 -0.0612432 31.4223 0.140097C31.1163 0.341438 30.9735 0.715981 31.0678 1.06991C31.506 2.71559 31.1265 4.45232 27.8896 8.02363C26.4353 9.42789 25.9743 11.5721 26.723 13.4499C27.0093 14.1682 27.4194 14.8306 27.9347 15.4071C27.7288 16.7217 27.5671 17.9666 27.4557 19.1792C27.2637 21.1847 27.2142 23.2014 27.3076 25.2139C26.5485 25.6255 25.8378 26.1207 25.1888 26.6903L21.0618 9.04218C21.0618 9.02431 21.0448 9.01155 21.0397 8.99538C21.0259 8.93864 21.0059 8.88358 20.9802 8.83115L16.7647 1.04609C16.3428 0.266879 15.4516 -0.133534 14.5889 0.0685272C13.7261 0.270588 13.1054 1.02512 13.0734 1.91062L12.7535 10.7559C12.7537 10.8198 12.7608 10.8834 12.7747 10.9457C12.7747 10.9593 12.7747 10.9712 12.7747 10.984L16.9851 28.9528C16.3209 28.9822 15.6616 29.0806 15.0178 29.2464L10.3862 18.0611C10.0148 17.206 9.02979 16.8026 8.16531 17.1514L1.08651 20.082C0.220159 20.4436 -0.191556 21.437 0.164962 22.3055L6.44645 37.4586C2.76495 37.6519 -0.0927199 40.7424 0.00230242 44.4277C0.0973248 48.1131 3.11046 51.0522 6.79703 51.0555H44.2375C46.6695 51.0202 48.898 49.6902 50.0835 47.5663C51.269 45.4425 51.2313 42.8475 49.9848 40.759C48.7382 38.6704 46.4721 37.4055 44.0401 37.4408ZM43.173 15.4156L46.7401 13.1896L45.4773 16.2393C45.2973 16.6735 45.5034 17.1714 45.9376 17.3514C46.3719 17.5314 46.8698 17.3253 47.0498 16.8911L48.3125 13.8414L49.2579 17.9368C48.2465 19.1708 47.4156 20.5423 46.7903 22.0102C45.9031 22.4214 44.8844 22.4428 43.9808 22.069C43.0772 21.6953 42.3711 20.9606 42.0336 20.0429C42.6312 18.5624 43.0149 17.0043 43.173 15.4156ZM41.2159 22.0961C41.7788 22.7844 42.5093 23.3162 43.3372 23.6406C43.9953 23.9236 44.7031 24.0729 45.4194 24.0796C45.5918 24.079 45.7639 24.0685 45.9351 24.0481L43.2198 30.6002C42.4067 28.8076 41.149 27.2525 39.5659 26.0827L41.2159 22.0961ZM29.5583 16.0189L33.8333 16.2801C33.8597 17.0749 33.8503 17.8968 33.8239 18.7316C32.3998 18.8334 30.9686 18.7642 29.5608 18.5257C29.4536 18.5104 29.349 18.4984 29.2426 18.484C29.3277 17.6824 29.4315 16.8706 29.5566 16.0189H29.5583ZM29.1524 9.16641C31.4116 6.67407 32.5824 4.75695 32.8547 2.9547C34.4787 4.62552 35.5506 6.75453 35.9257 9.05409C36.1044 11.056 35.4855 13.0474 34.2034 14.5953C32.5226 14.4932 30.8602 14.3911 29.2162 14.2889C28.5098 13.6286 28.1035 12.7086 28.0911 11.7417C28.0787 10.7747 28.4614 9.84464 29.1507 9.16641H29.1524ZM29.0877 20.1799L29.3345 20.2122C30.431 20.3818 31.5378 20.4759 32.6471 20.4939C32.9994 20.4939 33.3704 20.4658 33.7423 20.4368C33.6648 21.532 33.538 22.6756 33.3772 23.8575C33.167 23.8465 32.9611 23.8261 32.7501 23.8261C31.4654 23.8284 30.1903 24.0479 28.9788 24.4753C28.9396 23.0426 28.9754 21.6088 29.086 20.1799H29.0877ZM22.5059 30.1305L20.0714 19.7604C19.9576 19.3105 19.5043 19.0347 19.0524 19.1405C18.6006 19.2464 18.3168 19.6947 18.4146 20.1484L20.6024 29.4821C20.0009 29.267 19.3795 29.1122 18.7473 29.0201L15.0127 13.0823C15.5358 13.3205 16.1039 13.4441 16.6788 13.4448C16.7324 13.4448 16.7894 13.4372 16.8438 13.4346L17.4454 16.0036C17.5103 16.3042 17.7323 16.5465 18.0262 16.6373C18.3201 16.728 18.6401 16.6531 18.8632 16.4412C19.0862 16.2294 19.1776 15.9137 19.1022 15.6155L18.4997 13.0449C19.0771 12.7893 19.5863 12.4017 19.9863 11.9132L23.7831 28.1479C23.29 28.7629 22.862 29.4273 22.5059 30.1305ZM17.3067 11.6656C16.2185 11.8766 15.1074 11.4317 14.4655 10.5279L14.5736 7.53095C14.8697 7.58625 15.1701 7.61472 15.4713 7.61604C15.7622 7.61726 16.0523 7.58499 16.3358 7.51988C16.9099 7.36913 17.4468 7.1021 17.9134 6.73534L19.3464 9.37999C19.1757 10.4773 18.3774 11.3725 17.3067 11.6673V11.6656ZM14.9761 1.72512C15.092 1.69828 15.2116 1.75183 15.2688 1.85616L17.0932 5.23006C16.7641 5.52779 16.3711 5.74611 15.9444 5.86825C15.5083 5.94829 15.0597 5.92704 14.6331 5.80613L14.7718 1.97189C14.7765 1.85299 14.8601 1.7519 14.9761 1.72512ZM8.81796 18.7205L9.46807 20.2913L6.31966 21.5949C5.94642 21.7517 5.73527 22.1497 5.81478 22.5466C5.89429 22.9436 6.24245 23.2295 6.64727 23.2304C6.75907 23.2302 6.86975 23.2082 6.97317 23.1657L10.1216 21.8613L10.7725 23.4338L9.19747 24.0864C8.82209 24.2418 8.60888 24.6408 8.68839 25.0392C8.76791 25.4376 9.11797 25.7243 9.52423 25.7236C9.63573 25.7232 9.74611 25.7013 9.84928 25.6589L11.4243 25.0063L12.0753 26.5788L8.92433 27.8849C8.54894 28.0403 8.33573 28.4393 8.41525 28.8377C8.49476 29.2361 8.84482 29.5228 9.25108 29.5221C9.3626 29.5218 9.47299 29.4998 9.57613 29.4574L12.7245 28.1538L13.4129 29.8157C10.6401 31.0813 8.60684 33.5561 7.90322 36.5218L1.73576 21.6511L8.81796 18.7205ZM44.2375 49.3536H6.79703C3.97733 49.3536 1.69151 47.0678 1.69151 44.2481C1.69151 41.4284 3.97733 39.1426 6.79703 39.1426C7.29007 39.141 7.78066 39.2121 8.25295 39.3536C8.50809 39.4307 8.78461 39.3838 9.00004 39.2268C9.21546 39.0699 9.34492 38.8211 9.34979 38.5546C9.41032 35.522 11.1634 32.7785 13.89 31.4495C16.6165 30.1205 19.8576 30.4296 22.2838 32.2502C22.4982 32.4097 22.7751 32.4593 23.0315 32.384C23.2879 32.3088 23.4941 32.1174 23.5882 31.8672C25.2507 27.4367 29.8454 24.8305 34.5012 25.6773C39.157 26.5242 42.5398 30.5813 42.5357 35.3135C42.5373 36.2866 42.3924 37.2545 42.1059 38.1845C42.0165 38.4738 42.0876 38.7889 42.2926 39.0118C42.4977 39.2347 42.8057 39.3318 43.1015 39.2668C43.4746 39.1847 43.8555 39.1431 44.2375 39.1426C47.0572 39.1426 49.343 41.4284 49.343 44.2481C49.343 47.0678 47.0572 49.3536 44.2375 49.3536Z" fill="black"/>
<path d="M32.9075 13.3595C33.1746 13.3605 33.4267 13.2361 33.5882 13.0234C34.6506 11.5856 35.0611 9.76807 34.72 8.0132C34.6474 7.71314 34.418 7.47593 34.1205 7.39334C33.8231 7.31075 33.5042 7.39575 33.2873 7.61544C33.0705 7.83513 32.9896 8.15505 33.076 8.45142C33.2797 9.69839 32.9757 10.975 32.2319 11.9964C32.0385 12.2542 32.0074 12.5992 32.1515 12.8874C32.2957 13.1757 32.5903 13.3578 32.9126 13.3578L32.9075 13.3595Z" fill="black"/>
<path d="M31.7885 39.1427C31.1558 39.1446 30.5317 39.2901 29.9633 39.5681C28.4326 37.4735 25.5744 36.8599 23.3188 38.1417C21.0632 39.4234 20.1275 42.193 21.1435 44.5801C21.2772 44.8938 21.5853 45.0974 21.9264 45.0974C22.041 45.0977 22.1546 45.0745 22.2599 45.0293C22.4676 44.9409 22.6316 44.7736 22.7158 44.5642C22.8001 44.3548 22.7977 44.1206 22.7092 43.9129C22.524 43.4811 22.4285 43.0162 22.4284 42.5464C22.4284 40.6666 23.9523 39.1427 25.8321 39.1427C27.1523 39.1361 28.3548 39.9011 28.9082 41.0998C28.9266 41.1275 28.9465 41.1542 28.9677 41.1798C28.9812 41.209 28.9962 41.2374 29.0128 41.2649C29.0282 41.2836 29.0503 41.2921 29.0673 41.31C29.1072 41.3514 29.1514 41.3885 29.1992 41.4206C29.2417 41.4533 29.2873 41.4818 29.3353 41.5057C29.3848 41.5264 29.4361 41.5424 29.4885 41.5533C29.5408 41.5671 29.5944 41.5753 29.6485 41.578C29.759 41.5771 29.8687 41.5587 29.9735 41.5235C29.9962 41.5194 30.0187 41.514 30.0408 41.5074C30.0684 41.4895 30.0948 41.4699 30.1199 41.4487C30.1505 41.4351 30.1803 41.4197 30.2092 41.4027C30.6562 41.0412 31.2137 40.8442 31.7885 40.8445C32.7835 40.8461 33.6868 41.4257 34.103 42.3294C34.2981 42.757 34.8029 42.9456 35.2305 42.7506C35.6582 42.5555 35.8467 42.0508 35.6517 41.6231C34.9588 40.1129 33.4501 39.1442 31.7885 39.1427Z" fill="black"/>
<path d="M15.0373 33.2296C14.9088 33.2713 11.9025 34.3112 11.9025 37.4408C11.9025 37.9108 12.2835 38.2918 12.7535 38.2918C13.2234 38.2918 13.6044 37.9108 13.6044 37.4408C13.6738 36.2538 14.4549 35.2269 15.5802 34.843C16.0267 34.6931 16.2671 34.2096 16.1172 33.7632C15.9672 33.3167 15.4838 33.0763 15.0373 33.2262V33.2296Z" fill="black"/>
<path d="M27.0123 32.3097C27.0799 32.3269 27.1494 32.3355 27.2191 32.3353C27.6091 32.3349 27.9489 32.0694 28.0436 31.6911C28.4353 30.1022 29.8419 28.9719 31.478 28.9316C31.9479 28.9304 32.3279 28.5485 32.3267 28.0785C32.3256 27.6086 31.9437 27.2286 31.4737 27.2297C29.0551 27.2619 26.9651 28.9272 26.3937 31.2776C26.2795 31.7334 26.5565 32.1955 27.0123 32.3097Z" fill="black"/>
</svg>
