<svg width="51" height="51" viewBox="0 0 51 51" fill="none" xmlns="http://www.w3.org/2000/svg">
<g clip-path="url(#clip0_9:9920)">
<path d="M17.2742 13.1614C15.0065 13.1614 13.1613 15.0066 13.1613 17.2743C13.1613 19.542 15.0065 21.3872 17.2742 21.3872C19.5419 21.3872 21.3871 19.542 21.3871 17.2743C21.3871 15.0066 19.5419 13.1614 17.2742 13.1614ZM17.2742 19.742C15.9138 19.742 14.8065 18.6347 14.8065 17.2743C14.8065 15.9139 15.9138 14.8065 17.2742 14.8065C18.6346 14.8065 19.742 15.9139 19.742 17.2743C19.742 18.6347 18.6346 19.742 17.2742 19.742Z" fill="black"/>
<path d="M33.7258 37.8386C31.4581 37.8386 29.6129 39.6838 29.6129 41.9515C29.6129 44.2192 31.4581 46.0644 33.7258 46.0644C35.9935 46.0644 37.8387 44.2192 37.8387 41.9515C37.8387 39.6838 35.9935 37.8386 33.7258 37.8386ZM33.7258 44.4193C32.3654 44.4193 31.2581 43.3119 31.2581 41.9515C31.2581 40.5911 32.3654 39.4838 33.7258 39.4838C35.0862 39.4838 36.1936 40.5911 36.1936 41.9515C36.1936 43.3119 35.0862 44.4193 33.7258 44.4193Z" fill="black"/>
<path d="M47.263 33.0563C48.1045 30.6339 48.5323 28.0971 48.5323 25.5C48.5323 19.95 46.5449 14.637 42.9312 10.4542C43.3486 9.81072 43.5968 9.04758 43.5968 8.22581C43.5968 5.95809 41.7516 4.1129 39.4839 4.1129C38.352 4.1129 37.3254 4.5736 36.5811 5.31625C33.6246 3.69157 30.3146 2.73002 26.9371 2.52036C25.5791 0.978823 23.5974 0 21.3871 0C18.5032 0 15.9014 1.69697 14.6956 4.24786C13.761 3.62409 12.6653 3.29032 11.5161 3.29032C8.59332 3.29032 6.17176 5.48012 5.80586 8.30493C5.51868 8.25232 5.22829 8.22581 4.93548 8.22581C2.2135 8.22581 0 10.4393 0 13.1613C0 15.4688 1.59415 17.4059 3.73696 17.9437C2.8955 20.3661 2.46774 22.9029 2.46774 25.5C2.46774 30.6114 4.19685 35.5883 7.31928 39.6104C6.85618 40.2759 6.58065 41.0812 6.58065 41.9516C6.58065 44.2193 8.42583 46.0645 10.6935 46.0645C11.7145 46.0645 12.6379 45.6769 13.3577 45.0584C17.0003 47.3249 21.1798 48.5323 25.5 48.5323C25.9185 48.5323 26.339 48.5094 26.7584 48.4861L28.2087 49.9364C28.5172 50.2449 29.0634 50.2449 29.3719 49.9364L30.6371 48.6712C30.8412 48.7644 31.0484 48.85 31.2581 48.9247V50.1774C31.2581 50.6325 31.6268 51 32.0806 51H35.371C35.8248 51 36.1935 50.6325 36.1935 50.1774V48.9263C36.4056 48.8516 36.6141 48.7676 36.8169 48.6744L38.0797 49.9364C38.4014 50.2582 38.9212 50.2582 39.2429 49.9364L41.7106 47.4687C41.8653 47.3149 41.9516 47.106 41.9516 46.8871C41.9516 46.6682 41.8653 46.4593 41.7106 46.3055L40.4478 45.0427C40.541 44.8407 40.625 44.6322 40.6997 44.4194H41.9516C42.4055 44.4194 42.7742 44.0518 42.7742 43.5968V42.7742H46.0645C48.7865 42.7742 51 40.5607 51 37.8387C51 35.5312 49.4058 33.5941 47.263 33.0563ZM39.4839 5.75806C40.8443 5.75806 41.9516 6.86542 41.9516 8.22581C41.9516 9.5862 40.8443 10.6935 39.4839 10.6935C38.1235 10.6935 37.0161 9.5862 37.0161 8.22581C37.0161 6.86542 38.1235 5.75806 39.4839 5.75806ZM1.64516 13.1613C1.64516 11.3466 3.12083 9.87097 4.93548 9.87097C5.38935 9.87097 5.83719 9.96736 6.26495 10.1573C6.52964 10.2742 6.83328 10.2256 7.07026 10.0585C7.30683 9.89225 7.43696 9.59463 7.41648 9.30585C7.40965 9.22029 7.40323 9.13554 7.40323 9.04839C7.40323 6.78067 9.24841 4.93548 11.5161 4.93548C12.6363 4.93548 13.6846 5.38051 14.4675 6.18823C14.6723 6.3995 14.9751 6.48706 15.2595 6.41356C15.5451 6.34126 15.7696 6.12236 15.8495 5.8396C16.5464 3.37025 18.823 1.64516 21.3871 1.64516C24.5621 1.64516 27.1452 4.22818 27.1452 7.40323C27.1452 8.05069 27.0315 8.69815 26.807 9.32874C26.6921 9.65287 26.7905 10.0148 27.0548 10.2353C27.3187 10.4566 27.6922 10.4895 27.9906 10.3184C28.51 10.0216 29.055 9.87097 29.6129 9.87097C31.4276 9.87097 32.9032 11.3466 32.9032 13.1613C32.9032 14.9759 31.4276 16.4516 29.6129 16.4516H26.3226V15.629C26.3226 15.1752 25.9539 14.8065 25.5 14.8065H24.2473C24.1725 14.5968 24.0886 14.3895 23.9938 14.1855L25.259 12.9203C25.5807 12.5986 25.5807 12.0788 25.259 11.7571L22.7913 9.28938C22.4695 8.96766 21.9498 8.96766 21.6281 9.28938L20.3629 10.5546C20.1588 10.4606 19.9516 10.3758 19.7419 10.3011V9.04839C19.7419 8.59452 19.3732 8.22581 18.9194 8.22581H15.629C15.1752 8.22581 14.8065 8.59452 14.8065 9.04839V10.3003C14.5944 10.375 14.3859 10.459 14.1831 10.5522L12.9203 9.28938C12.5986 8.96766 12.0788 8.96766 11.7571 9.28938L9.28938 11.7571C8.96766 12.0788 8.96766 12.5986 9.28938 12.9203L10.5522 14.1831C10.459 14.3859 10.375 14.5944 10.3003 14.8065H9.04839C8.59452 14.8065 8.22581 15.1752 8.22581 15.629V16.4516H4.93548C3.12083 16.4516 1.64516 14.9759 1.64516 13.1613ZM22.4105 21.1059L23.5142 22.2097L22.2097 23.5142L21.1059 22.4105C20.8441 22.1478 20.438 22.0944 20.1163 22.2772C19.6845 22.5238 19.2122 22.7137 18.7137 22.8431C18.351 22.9359 18.0968 23.2644 18.0968 23.6392V24.6774H16.4516V23.6392C16.4516 23.2644 16.1974 22.9367 15.8347 22.8431C15.3511 22.7182 14.8796 22.5262 14.4345 22.2739C14.112 22.0896 13.7083 22.1454 13.4469 22.4073L12.3387 23.5142L11.0341 22.2097L12.1411 21.1023C12.403 20.8409 12.458 20.4364 12.2744 20.1147C12.0222 19.6696 11.8302 19.1981 11.7053 18.7145C11.6125 18.351 11.284 18.0968 10.9092 18.0968H9.87097V16.4516H10.9092C11.284 16.4516 11.6117 16.1974 11.7053 15.8347C11.8338 15.3362 12.0246 14.8639 12.2712 14.4321C12.4548 14.1096 12.4006 13.7051 12.1379 13.4424L11.0341 12.3387L12.3387 11.0341L13.4424 12.1379C13.7051 12.4014 14.1104 12.4556 14.4321 12.2712C14.8639 12.0246 15.3362 11.8346 15.8347 11.7053C16.1974 11.6117 16.4516 11.284 16.4516 10.9092V9.87097H18.0968V10.9092C18.0968 11.284 18.351 11.6117 18.7137 11.7053C19.1973 11.8302 19.6688 12.0222 20.1139 12.2744C20.4344 12.4572 20.84 12.4022 21.1015 12.1411L22.2097 11.0341L23.5142 12.3387L22.4073 13.4461C22.1454 13.7075 22.0904 14.112 22.2739 14.4337C22.5262 14.8787 22.7182 15.3503 22.8431 15.8339C22.9367 16.1974 23.2644 16.4508 23.6392 16.4508H24.6774V18.096H23.6392C23.2644 18.096 22.9367 18.3502 22.8431 18.7129C22.7146 19.2114 22.5238 19.6837 22.2772 20.1155C22.0936 20.4388 22.1478 20.8433 22.4105 21.1059ZM10.6935 44.4194C9.33316 44.4194 8.22581 43.312 8.22581 41.9516C8.22581 40.5912 9.33316 39.4839 10.6935 39.4839C12.0539 39.4839 13.1613 40.5912 13.1613 41.9516C13.1613 43.312 12.0539 44.4194 10.6935 44.4194ZM14.3755 43.7482C14.6426 43.2028 14.8065 42.5983 14.8065 41.9516C14.8065 39.6839 12.9613 37.8387 10.6935 37.8387C9.89386 37.8387 9.15362 38.0773 8.52102 38.4737C5.68336 34.7613 4.1129 30.1921 4.1129 25.5C4.1129 22.9491 4.56115 20.4625 5.43474 18.0968H8.22581V18.9194C8.22581 19.3732 8.59452 19.7419 9.04839 19.7419H10.3011C10.3758 19.9516 10.4598 20.1588 10.5546 20.3629L9.28938 21.6281C8.96766 21.9498 8.96766 22.4695 9.28938 22.7913L11.7571 25.259C12.0788 25.5807 12.5986 25.5807 12.9203 25.259L14.1855 23.9938C14.3895 24.0878 14.5968 24.1725 14.8065 24.2473V25.5C14.8065 25.9539 15.1752 26.3226 15.629 26.3226H18.9194C19.3732 26.3226 19.7419 25.9539 19.7419 25.5V24.2481C19.954 24.1733 20.1625 24.0894 20.3653 23.9962L21.6281 25.259C21.9498 25.5807 22.4695 25.5807 22.7913 25.259L25.259 22.7913C25.5807 22.4695 25.5807 21.9498 25.259 21.6281L23.9962 20.3653C24.0894 20.1625 24.1733 19.954 24.2481 19.7419H25.5C25.9539 19.7419 26.3226 19.3732 26.3226 18.9194V18.0968H29.6129C32.3349 18.0968 34.5484 15.8833 34.5484 13.1613C34.5484 10.4393 32.3349 8.22581 29.6129 8.22581C29.3161 8.22581 29.0225 8.25312 28.7337 8.30814C28.7714 8.00691 28.7903 7.70527 28.7903 7.40323C28.7903 6.28463 28.5337 5.22748 28.0878 4.27597C30.744 4.5989 33.3262 5.42309 35.6738 6.69431C35.4818 7.16866 35.371 7.68358 35.371 8.22581C35.371 10.4935 37.2162 12.3387 39.4839 12.3387C40.3338 12.3387 41.1242 12.0796 41.7805 11.6362C45.0773 15.5033 46.8871 20.3942 46.8871 25.5C46.8871 28.0674 46.4332 30.5704 45.5472 32.9518C45.4263 32.9651 45.3038 32.9635 45.1845 32.9856C45.2231 32.6843 45.2419 32.3827 45.2419 32.0806C45.2419 27.9983 41.9203 24.6774 37.8387 24.6774C34.9549 24.6774 32.353 26.3744 31.1472 28.9253C30.2126 28.3015 29.1177 27.9677 27.9677 27.9677C25.0449 27.9677 22.6234 30.1567 22.2575 32.9823C21.9703 32.9297 21.6799 32.9032 21.3871 32.9032C18.6651 32.9032 16.4516 35.1167 16.4516 37.8387C16.4516 40.5607 18.6651 42.7742 21.3871 42.7742H24.6774V43.5968C24.6774 44.0518 25.0461 44.4194 25.5 44.4194H26.7527C26.8275 44.6298 26.9114 44.8363 27.0062 45.0403L25.741 46.3055C25.5823 46.4642 25.5032 46.6714 25.5016 46.8799C21.5771 46.8755 17.7232 45.7914 14.3755 43.7482ZM41.129 42.7742H40.0908C39.716 42.7742 39.3883 43.0284 39.2947 43.3911C39.1662 43.8896 38.9754 44.3619 38.7288 44.7945C38.5452 45.117 38.5994 45.5215 38.8621 45.7834L39.9659 46.8871L38.6613 48.1917L37.5576 47.0879C37.2957 46.826 36.8912 46.771 36.5687 46.9546C36.1361 47.2012 35.6638 47.3912 35.1653 47.5205C34.8018 47.6149 34.5484 47.9418 34.5484 48.3166V49.3548H32.9032V48.3166C32.9032 47.9418 32.6498 47.6141 32.2871 47.5205C31.8019 47.3948 31.3304 47.202 30.8853 46.9506C30.5636 46.7662 30.1591 46.8228 29.8977 47.0835L28.7903 48.1917L27.4858 46.8871L28.5927 45.7789C28.8546 45.5175 28.9096 45.1118 28.7261 44.7905C28.4726 44.3471 28.2818 43.8763 28.1569 43.3919C28.0641 43.0284 27.7356 42.7742 27.3608 42.7742H26.3226V41.129H27.3608C27.7356 41.129 28.0633 40.8748 28.1569 40.5121C28.2854 40.0136 28.4762 39.5413 28.7228 39.1087C28.9064 38.7862 28.8522 38.3817 28.5895 38.1199L27.4858 37.0161L28.7903 35.7116L29.8941 36.8153C30.1559 37.0764 30.5604 37.1322 30.8829 36.9487C31.3155 36.702 31.7878 36.5121 32.2863 36.3827C32.649 36.2891 32.9032 35.9614 32.9032 35.5867V34.5484H34.5484V35.5867C34.5484 35.9614 34.8018 36.2891 35.1645 36.3827C35.6497 36.5084 36.1213 36.7012 36.5663 36.9527C36.888 37.1362 37.2925 37.0804 37.5539 36.8197L38.6613 35.7116L39.9659 37.0161L38.8589 38.1243C38.597 38.3858 38.542 38.7914 38.7256 39.1127C38.979 39.5562 39.1698 40.0269 39.2947 40.5113C39.3875 40.8748 39.716 41.129 40.0908 41.129H41.129V42.7742ZM46.0645 41.129H42.7742V40.3064C42.7742 39.8514 42.4055 39.4839 41.9516 39.4839H40.6989C40.6242 39.2734 40.5402 39.067 40.4454 38.8629L41.7106 37.5977C42.0323 37.276 42.0323 36.7563 41.7106 36.4345L39.2429 33.9668C38.9344 33.6583 38.3882 33.6583 38.0797 33.9668L36.8145 35.232C36.6105 35.1388 36.4032 35.0533 36.1935 34.9786V33.7258C36.1935 33.2707 35.8248 32.9032 35.371 32.9032H32.0806C31.6268 32.9032 31.2581 33.2707 31.2581 33.7258V34.9769C31.046 35.0517 30.8375 35.1356 30.6347 35.2288L29.3719 33.9668C29.0502 33.6451 28.5305 33.6451 28.2087 33.9668L25.741 36.4345C25.5864 36.5884 25.5 36.7972 25.5 37.0161C25.5 37.235 25.5864 37.4439 25.741 37.5977L27.0038 38.8605C26.9106 39.0625 26.8267 39.271 26.7519 39.4839H25.5C25.0461 39.4839 24.6774 39.8514 24.6774 40.3064V41.129H21.3871C19.5724 41.129 18.0968 39.6534 18.0968 37.8387C18.0968 36.0241 19.5724 34.5484 21.3871 34.5484C21.841 34.5484 22.2888 34.6448 22.7174 34.8348C22.9829 34.9524 23.2865 34.9022 23.5227 34.736C23.7584 34.5705 23.8894 34.2729 23.8681 33.9849C23.8613 33.8985 23.8548 33.813 23.8548 33.7258C23.8548 31.4581 25.7 29.6129 27.9677 29.6129C29.0879 29.6129 30.1363 30.0579 30.9191 30.8665C31.1247 31.0777 31.426 31.1633 31.7111 31.091C31.9967 31.0187 32.2212 30.7998 32.3012 30.517C32.998 28.0477 35.2746 26.3226 37.8387 26.3226C41.0138 26.3226 43.5968 28.9064 43.5968 32.0806C43.5968 32.7281 43.4831 33.3756 43.2586 34.007C43.1437 34.3319 43.2421 34.693 43.5064 34.9143C43.7703 35.1348 44.1446 35.1677 44.4422 34.9966C44.9616 34.6998 45.5066 34.5484 46.0645 34.5484C47.8792 34.5484 49.3548 36.0241 49.3548 37.8387C49.3548 39.6534 47.8792 41.129 46.0645 41.129Z" fill="black"/>
</g>
<defs>
<clipPath id="clip0_9:9920">
<rect width="51" height="51" fill="white"/>
</clipPath>
</defs>
</svg>
