<svg width="51" height="51" viewBox="0 0 51 51" fill="none" xmlns="http://www.w3.org/2000/svg">
<g clip-path="url(#clip0_24:305)">
<path d="M47.6534 25.5064C48.7265 23.3671 49.5712 21.2165 50.1576 19.0975C51.9961 12.4579 51.1059 6.89807 47.6503 3.44287C44.1951 -0.0123343 38.6352 -0.902983 31.9956 0.935512C29.8766 1.52189 27.726 2.36701 25.5868 3.43976C22.9253 2.10398 20.26 1.12656 17.6919 0.563533C11.727 -0.743842 6.69946 0.278712 3.53569 3.44287C1.50498 5.47358 0.327172 8.32685 0.130287 11.6945C-0.0467532 14.724 0.567246 18.2006 1.90536 21.7819C0.806543 22.6508 0.0995483 23.9939 0.0995483 25.5001C0.0995483 27.0063 0.806543 28.3495 1.90536 29.2184C0.567246 32.7997 -0.0467532 36.2766 0.130287 39.3058C0.327561 42.6734 1.50498 45.5267 3.53569 47.5574C5.80336 49.8255 8.98503 50.9947 12.8282 50.9947C13.5998 50.9947 14.3982 50.9476 15.2215 50.8527C18.5168 50.4726 22.0378 49.35 25.5918 47.5629C27.7295 48.6348 29.8785 49.4788 31.9956 50.0648C34.2551 50.6904 36.3897 51.0002 38.359 51.0002C42.1756 51.0002 45.3709 49.8368 47.6503 47.5574C50.8144 44.3937 51.837 39.3661 50.5296 33.4008C49.9666 30.8331 48.9892 28.1678 47.6534 25.5064ZM32.3948 2.3779C38.4924 0.689601 43.5344 1.44368 46.5919 4.50122C49.6495 7.55876 50.4035 12.6007 48.7152 18.6983C48.2425 20.4064 47.5931 22.1379 46.7853 23.8679C45.3378 21.2722 43.5577 18.7002 41.4951 16.247C42.127 15.4415 42.5052 14.4279 42.5052 13.3272C42.5052 12.263 42.1608 11.2575 41.5087 10.4194L40.3274 11.3381C40.7733 11.9112 41.0087 12.5992 41.0087 13.3272C41.0087 15.1155 39.5539 16.5699 37.766 16.5699C35.978 16.5699 34.5232 15.1155 34.5232 13.3272C34.5232 11.5389 35.978 10.0844 37.766 10.0844C38.3496 10.0844 38.922 10.2408 39.4204 10.5373L40.1854 9.25096C39.4554 8.81711 38.6189 8.58754 37.766 8.58754C36.6652 8.58754 35.6516 8.96614 34.8465 9.59803C32.3929 7.53542 29.8209 5.75529 27.2252 4.30745C28.9552 3.50007 30.6867 2.85066 32.3948 2.3779ZM4.59404 4.50122C8.64029 0.454974 16.0596 0.605945 23.9545 4.30317C20.1004 6.45255 16.3203 9.33072 12.8717 12.7789C10.3146 15.3361 8.06403 18.0827 6.1734 20.95C5.74733 20.8263 5.29909 20.7605 4.83917 20.7605C4.27303 20.7605 3.73024 20.8609 3.22635 21.0434C0.633393 13.9762 1.11899 7.97588 4.59404 4.50122ZM12.8671 49.4928C9.48152 49.4928 6.60335 48.5084 4.59365 46.4991C1.11899 43.0244 0.633004 37.0245 3.22635 29.9569C3.73024 30.1398 4.27303 30.2398 4.83917 30.2398C5.30181 30.2398 5.7485 30.1717 6.17184 30.0476C8.06247 32.916 10.3138 35.6634 12.8717 38.2214C16.3192 41.6684 20.0981 44.5458 23.951 46.6952C19.9934 48.5473 16.1861 49.4932 12.8671 49.4928ZM25.5887 45.8808C21.5463 43.7575 17.5546 40.7871 13.9301 37.163C11.4947 34.7273 9.3465 32.1172 7.53524 29.395C8.76869 28.5386 9.57841 27.1126 9.57841 25.5005C9.57841 25.3601 9.57257 25.218 9.56012 25.0784L8.06909 25.2103C8.07765 25.306 8.08193 25.4033 8.08193 25.5001C8.08193 27.2884 6.62709 28.7429 4.83917 28.7429C3.05126 28.7429 1.59642 27.2884 1.59642 25.5001C1.59642 23.7118 3.05126 22.2574 4.83917 22.2574C6.07418 22.2574 7.18583 22.9438 7.73991 24.0484L9.07764 23.3776C8.71188 22.648 8.17882 22.0438 7.53836 21.5998C9.34923 18.88 11.4963 16.2711 13.9301 13.8373C17.5553 10.212 21.5487 7.24087 25.5922 5.11755C28.3443 6.56617 31.1287 8.43385 33.8263 10.6957C33.3213 11.449 33.0263 12.354 33.0263 13.3272C33.0263 15.9404 35.1528 18.0664 37.766 18.0664C38.7391 18.0664 39.6441 17.7715 40.3974 17.2664C42.6593 19.964 44.5266 22.7488 45.9752 25.5005C43.8519 29.5441 40.8807 33.5374 37.2559 37.163C36.857 37.5615 36.4473 37.9576 36.0333 38.3455C35.2072 37.6467 34.1407 37.2241 32.9765 37.2241C31.9123 37.2241 30.9069 37.5688 30.0688 38.2206L30.9878 39.4019C31.5606 38.9564 32.2485 38.721 32.9765 38.7206C34.7644 38.7206 36.2193 40.1754 36.2193 41.9633C36.2193 43.7516 34.7644 45.2061 32.9765 45.2061C31.1886 45.2061 29.7338 43.7516 29.7338 41.9633C29.7338 41.3797 29.8902 40.8077 30.1867 40.3093L28.9003 39.5439C28.4665 40.2739 28.2369 41.1104 28.2369 41.9633C28.2369 42.7143 28.4132 43.424 28.7252 44.0555C27.6766 44.7248 26.6291 45.3333 25.5887 45.8808ZM46.5919 46.4991C43.5344 49.557 38.4924 50.3107 32.3948 48.6228C30.6878 48.15 28.9579 47.5014 27.2291 46.6944C28.0175 46.2539 28.8062 45.7812 29.5925 45.2777C30.4536 46.1563 31.652 46.703 32.9765 46.703C35.5897 46.703 37.7162 44.5769 37.7162 41.9637C37.7162 41.0536 37.4578 40.2034 37.0115 39.4805C37.4527 39.0677 37.8893 38.6459 38.3138 38.2214C41.7624 34.7724 44.6402 30.9923 46.79 27.1383C50.4872 35.0335 50.6382 42.4528 46.5919 46.4991Z" fill="black"/>
<path d="M37.8655 33.233H36.3192V29.4622C36.3192 27.7945 35.1982 26.3136 33.5932 25.8607L33.0336 25.7031L32.6274 27.1436L33.187 27.3015C34.1496 27.5731 34.8223 28.4615 34.8223 29.4622V33.233H32.1282V31.1875H30.6317V33.233H23.8964V34.7295H37.8655V33.233Z" fill="black"/>
<path d="M28.068 25.8575L31.187 26.7376L31.5936 25.2968L28.5364 24.4346V22.447C29.9205 21.5031 30.8313 19.9144 30.8313 18.1164V15.9211C30.8313 13.0328 28.4816 10.6826 25.5929 10.6826C22.7046 10.6826 20.3544 13.0328 20.3544 15.9211V18.1164C20.3544 19.9144 21.2653 21.5031 22.6494 22.447V24.4346L17.5926 25.8606C15.9876 26.3135 14.8666 27.7944 14.8666 29.4621V33.2329H13.3203V34.7294H22.3999V33.2329H20.5541V31.1874H19.0576V33.2329H16.3635V29.4621C16.3635 28.4614 17.0362 27.573 17.9988 27.3015L23.1178 25.8579C23.7482 26.5474 24.6384 26.947 25.5929 26.947C26.5474 26.947 27.438 26.547 28.068 25.8575ZM25.5929 12.1795C27.6559 12.1795 29.3345 13.8581 29.3345 15.9215V16.7549L27.7613 14.674H22.0657C22.5805 13.2223 23.9668 12.1795 25.5929 12.1795ZM21.8513 18.1164V16.1709H27.0166L29.2103 19.072C28.7866 20.6739 27.3256 21.8579 25.5929 21.8579C23.5299 21.8579 21.8513 20.1794 21.8513 18.1164ZM24.1462 24.7595V23.1498C24.6057 23.2824 25.091 23.3548 25.5929 23.3548C26.0948 23.3548 26.5796 23.2824 27.0396 23.1498V24.7595C26.6878 25.1949 26.161 25.4501 25.5929 25.4501C25.0248 25.4501 24.4976 25.1949 24.1462 24.7595Z" fill="black"/>
<path d="M29.5456 29.3844L27.4374 28.7898L27.844 27.3494L29.9518 27.9439L29.5456 29.3844Z" fill="black"/>
<path d="M32.831 28.7536L32.4244 30.1941L30.9839 29.7879L31.3906 28.3474L32.831 28.7536Z" fill="black"/>
<path d="M37.0176 12.5789H38.5141V14.0757H37.0176V12.5789Z" fill="black"/>
<path d="M32.2283 41.2153H33.7248V42.7118H32.2283V41.2153Z" fill="black"/>
<path d="M4.09064 24.752H5.5875V26.2484H4.09064V24.752Z" fill="black"/>
</g>
<defs>
<clipPath id="clip0_24:305">
<rect width="51" height="51" fill="white"/>
</clipPath>
</defs>
</svg>
