<svg width="15" height="15" viewBox="0 0 15 15" fill="none" xmlns="http://www.w3.org/2000/svg">
<path fill-rule="evenodd" clip-rule="evenodd" d="M10.8572 9.02057V14.4763C10.8552 14.5266 10.8645 14.5767 10.8846 14.6229C10.9047 14.6691 10.935 14.7101 10.9732 14.7428C11.0411 14.8057 11.1298 14.8414 11.2222 14.843H13.8122C13.9047 14.8412 13.9933 14.8056 14.0612 14.7428C14.0994 14.71 14.1296 14.669 14.1497 14.6229C14.1698 14.5767 14.1792 14.5266 14.1772 14.4763V8.4214C14.2103 7.93691 14.1381 7.451 13.9654 6.99724C13.7928 6.54348 13.5238 6.13268 13.1772 5.79325C12.4048 5.15537 11.4205 4.8333 10.4212 4.89148C9.9621 4.86745 9.50277 4.93477 9.06973 5.08954C8.6367 5.24432 8.23854 5.48349 7.89824 5.79325C7.9032 5.71432 7.89197 5.63521 7.86524 5.56079V5.39446C7.84955 5.31673 7.80879 5.24632 7.74924 5.19407C7.68832 5.14795 7.61357 5.12393 7.53724 5.12594H5.08024C4.9861 5.13389 4.8978 5.17497 4.83099 5.24191C4.76418 5.30885 4.72318 5.39732 4.71524 5.49166V14.4743C4.71318 14.5246 4.72255 14.5747 4.74264 14.6209C4.76274 14.6671 4.79303 14.7081 4.83124 14.7408C4.89912 14.8037 4.98777 14.8394 5.08024 14.841H7.60024C7.64901 14.8442 7.69791 14.837 7.74367 14.8198C7.78942 14.8025 7.83097 14.7757 7.86553 14.7411C7.9001 14.7065 7.92687 14.6648 7.94407 14.619C7.96127 14.5731 7.96848 14.5241 7.96524 14.4753V9.61875C7.93548 9.09397 8.06406 8.57236 8.33424 8.12181C8.48329 7.93327 8.67755 7.7856 8.89892 7.69257C9.12028 7.59954 9.36155 7.56418 9.60024 7.58977C9.78255 7.56682 9.96769 7.58644 10.1412 7.6471C10.3147 7.70777 10.4718 7.80783 10.6002 7.93945C10.8017 8.2622 10.8949 8.641 10.8662 9.02057H10.8572ZM2.92224 1.16918C2.76494 1.00749 2.57625 0.879795 2.3678 0.793977C2.15935 0.708159 1.93557 0.666036 1.71025 0.670204C1.48477 0.666235 1.26088 0.708647 1.05242 0.794816C0.843952 0.880986 0.655342 1.00908 0.498246 1.17119C0.337117 1.32857 0.209818 1.5173 0.124177 1.7258C0.0385351 1.93429 -0.0036395 2.15813 0.000246025 2.38356C-0.00306069 2.61192 0.0394994 2.83862 0.125395 3.05016C0.211291 3.26171 0.338768 3.45379 0.500246 3.61498C0.654987 3.78117 0.842818 3.91297 1.05159 4.00186C1.26037 4.09074 1.48544 4.13473 1.71224 4.13099C1.93905 4.13467 2.1641 4.09065 2.37286 4.00177C2.58163 3.91289 2.76946 3.78112 2.92424 3.61498C3.08572 3.45379 3.2132 3.26171 3.29909 3.05016C3.38499 2.83862 3.42755 2.61192 3.42424 2.38356C3.42789 2.15751 3.38522 1.93311 3.29887 1.72424C3.21253 1.51536 3.08434 1.32645 2.92224 1.16918ZM3.23724 5.24417C3.20585 5.20865 3.1676 5.17987 3.12481 5.15955C3.08202 5.13923 3.03556 5.1278 2.98824 5.12594H0.465246C0.415019 5.12387 0.364979 5.13326 0.318901 5.15339C0.272822 5.17352 0.231909 5.20388 0.199246 5.24217C0.136583 5.31028 0.101007 5.39904 0.0992459 5.49166V14.4743C0.0960032 14.5231 0.103222 14.5721 0.120418 14.618C0.137614 14.6638 0.16439 14.7054 0.198953 14.7401C0.233515 14.7747 0.275066 14.8015 0.32082 14.8188C0.366574 14.836 0.415475 14.8432 0.464246 14.84H2.98824C3.08068 14.8382 3.16927 14.8026 3.23724 14.7398C3.2754 14.707 3.30565 14.666 3.32574 14.6199C3.34583 14.5737 3.35523 14.5236 3.35324 14.4733V5.49366C3.35164 5.4464 3.34055 5.39994 3.32061 5.35707C3.30068 5.31421 3.27233 5.27581 3.23724 5.24417Z" fill="#CCCCCC"/>
</svg>
