<svg width="52" height="52" viewBox="0 0 52 52" fill="none" xmlns="http://www.w3.org/2000/svg">
<g clip-path="url(#clip0_13:724)">
<path d="M17.0599 35.595C19.2015 38.6145 21.3396 41.315 22.7566 43.0544C22.9629 43.3075 23.1562 43.5423 23.3433 43.7685H19.0672C18.5886 43.7685 18.2006 44.1565 18.2006 44.6351C18.2006 45.1138 18.5886 45.5018 19.0672 45.5018H32.9338C33.4125 45.5018 33.8005 45.1138 33.8005 44.6351C33.8005 44.1565 33.4125 43.7685 32.9338 43.7685H28.6577C28.8449 43.5423 29.0382 43.3074 29.2454 43.0544C30.6614 41.321 32.7987 38.6145 34.9411 35.595C37.0667 32.6593 38.98 29.5757 40.6663 26.3676C42.436 22.8922 43.334 20.0071 43.334 17.7919C43.3398 13.189 41.5133 8.77306 38.2578 5.51898C38.0404 5.29351 37.7182 5.20292 37.4152 5.28204C37.1121 5.36115 36.8753 5.59759 36.7957 5.90055C36.7162 6.20352 36.8063 6.52578 37.0315 6.74353C39.9618 9.67301 41.6058 13.6483 41.6006 17.7918C41.6006 19.7315 40.7669 22.3522 39.1219 25.5806C37.4737 28.7143 35.6038 31.7265 33.5267 34.594C31.4138 37.5745 29.3017 40.2447 27.9021 41.9607C27.4367 42.5309 27.0181 43.0353 26.661 43.4618C26.4943 43.6521 26.2536 43.7612 26.0006 43.7612C25.7476 43.7612 25.5069 43.652 25.3403 43.4618C24.9832 43.0354 24.5646 42.5309 24.0992 41.9607C22.6995 40.2456 20.5874 37.5753 18.4745 34.594C16.3974 31.7265 14.5276 28.7143 12.8793 25.5806C11.2327 22.3522 10.4007 19.7315 10.4007 17.7918C10.4002 11.5143 14.1543 5.8453 19.9341 3.39561C23.8176 1.76715 28.1926 1.76715 32.0761 3.39561C32.3613 3.51647 32.6893 3.47615 32.9366 3.28957C33.1839 3.10311 33.3128 2.79882 33.275 2.49139C33.2371 2.18396 33.0381 1.9201 32.7529 1.79924C23.9273 -1.92324 13.755 2.21179 10.0298 11.0362C9.12635 13.1737 8.66302 15.4713 8.66739 17.7918C8.66739 20.007 9.56531 22.8922 11.335 26.3719C13.0212 29.5785 14.9345 32.6608 17.0599 35.595Z" fill="black"/>
<path d="M26.0001 9.96862C26.4788 9.96862 26.8668 9.58065 26.8668 9.10199C26.8668 8.62332 26.4788 8.23535 26.0001 8.23535C21.8655 8.23525 18.3065 11.156 17.4998 15.2112C16.6931 19.2664 18.8634 23.3267 22.6833 24.909C26.5032 26.4914 30.9089 25.1549 33.206 21.7171C35.5032 18.2793 35.0519 13.6975 32.1283 10.7738C31.9107 10.5485 31.5885 10.4582 31.2855 10.5375C30.9825 10.6168 30.7458 10.8534 30.6665 11.1564C30.5872 11.4595 30.6776 11.7816 30.9029 11.9993C33.2419 14.3382 33.6029 18.0035 31.7653 20.7538C29.9278 23.5041 26.4032 24.5734 23.3473 23.3077C20.2914 22.042 18.5551 18.7938 19.2002 15.5496C19.8453 12.3054 22.6924 9.96873 26.0001 9.96862Z" fill="black"/>
<path d="M51.6741 47.73L46.3441 38.1966C45.8622 37.3495 44.9604 36.8289 43.9859 36.835H37.8091C37.3305 36.835 36.9425 37.223 36.9425 37.7017C36.9425 38.1803 37.3305 38.5683 37.8091 38.5683H43.9859C44.3328 38.5616 44.6565 38.7425 44.8326 39.0415L50.1609 48.5749C50.306 48.8229 50.303 49.1305 50.1531 49.3757C49.9761 49.6682 49.6559 49.8434 49.3142 49.8351H2.68738C2.34593 49.8432 2.02621 49.6679 1.84928 49.3757C1.69938 49.1305 1.69643 48.8229 1.84146 48.5749L7.16976 39.0415C7.34556 38.7426 7.66894 38.5617 8.01557 38.5683H14.1923C14.671 38.5683 15.059 38.1803 15.059 37.7017C15.059 37.223 14.671 36.835 14.1923 36.835H8.01567C7.04067 36.8286 6.13818 37.3492 5.65576 38.1966L0.326551 47.73C-0.117786 48.5148 -0.107528 49.4777 0.353466 50.2529C0.839139 51.0784 1.72974 51.5804 2.68738 51.5685H49.3142C50.2715 51.5801 51.1618 51.0782 51.6473 50.2529C52.1083 49.4776 52.1185 48.5148 51.6741 47.73Z" fill="black"/>
<path d="M42.467 41.1685H39.0003C38.8292 41.1688 38.6619 41.2193 38.5193 41.3141L35.9193 43.0475C35.5211 43.3132 35.4136 43.8513 35.6792 44.2496C35.9449 44.6478 36.4831 44.7553 36.8813 44.4897L39.2603 42.9019H42.467C42.9456 42.9019 43.3336 42.5139 43.3336 42.0353C43.3336 41.5564 42.9456 41.1685 42.467 41.1685Z" fill="black"/>
<path d="M37.2668 47.2353C37.2668 47.714 37.6548 48.1019 38.1335 48.1019H45.0669C45.5455 48.1019 45.9335 47.714 45.9335 47.2353C45.9335 46.7566 45.5455 46.3687 45.0669 46.3687H38.1335C37.6548 46.3687 37.2668 46.7566 37.2668 47.2353Z" fill="black"/>
<path d="M15.6011 44.6352C15.9832 44.6357 16.3205 44.3859 16.4315 44.0202C16.5425 43.6546 16.4009 43.2594 16.0831 43.0475L13.483 41.3141C13.3402 41.2192 13.1726 41.1686 13.0011 41.1685H9.53448C9.05582 41.1685 8.66785 41.5565 8.66785 42.0351C8.66785 42.5138 9.05592 42.9017 9.53448 42.9017H12.7411L15.1228 44.4895C15.2645 44.5841 15.4309 44.6348 15.6011 44.6352Z" fill="black"/>
<path d="M6.93439 46.3687C6.45572 46.3687 6.06775 46.7566 6.06775 47.2353C6.06775 47.714 6.45572 48.1019 6.93439 48.1019H13.8678C14.3464 48.1019 14.7344 47.714 14.7344 47.2353C14.7344 46.7566 14.3464 46.3687 13.8678 46.3687H6.93439Z" fill="black"/>
</g>
<defs>
<clipPath id="clip0_13:724">
<rect width="52" height="52" fill="white"/>
</clipPath>
</defs>
</svg>
