<svg width="40" height="40" viewBox="0 0 40 40" fill="none" xmlns="http://www.w3.org/2000/svg">
<rect width="40" height="40" fill="#363636"/>
<path fill-rule="evenodd" clip-rule="evenodd" d="M14.0008 18.2903C14.0349 19.2602 14.2468 20.2156 14.6258 21.1088C15.0072 22.1081 15.4778 23.0709 16.0318 23.9855C16.5525 24.8338 17.1448 25.7078 17.8088 26.6076C18.4728 27.5074 18.9368 28.1139 19.2008 28.4272C19.4608 28.7404 19.6691 28.9742 19.8258 29.1285L20.4508 28.4632C20.8415 27.9957 21.3231 27.3631 21.8958 26.5655C22.4685 25.7679 23.0415 24.92 23.6148 24.0215C24.2005 23.0949 24.6914 22.1113 25.0798 21.0858C25.4464 20.1978 25.65 19.2508 25.6808 18.2903C25.6933 17.5205 25.5472 16.7565 25.2514 16.046C24.9556 15.3355 24.5165 14.6938 23.9618 14.1612C23.4227 13.6111 22.7777 13.1765 22.0658 12.8838C21.3539 12.5912 20.5901 12.4466 19.8208 12.4588C19.0544 12.4456 18.2935 12.5898 17.5849 12.8826C16.8763 13.1754 16.2351 13.6105 15.7008 14.1612C15.151 14.6966 14.7165 15.3392 14.4241 16.0493C14.1317 16.7595 13.9877 17.5222 14.0008 18.2903ZM17.7508 18.2903C17.7504 18.0178 17.8037 17.7479 17.9076 17.4961C18.0115 17.2443 18.1639 17.0155 18.3562 16.8228C18.5485 16.6301 18.7769 16.4774 19.0282 16.3733C19.2795 16.2692 19.5489 16.2158 19.8208 16.2162C20.0953 16.2134 20.3677 16.2656 20.6218 16.3697C20.876 16.4738 21.1068 16.6277 21.3008 16.8224C21.4984 17.0122 21.6557 17.24 21.7632 17.4923C21.8706 17.7446 21.926 18.016 21.926 18.2903C21.926 18.5646 21.8706 18.836 21.7632 19.0883C21.6557 19.3405 21.4984 19.5684 21.3008 19.7582C21.1069 19.9529 20.876 20.1069 20.6219 20.211C20.3677 20.3151 20.0954 20.3672 19.8208 20.3644C19.5489 20.3647 19.2795 20.3114 19.0282 20.2073C18.7769 20.1032 18.5485 19.9504 18.3562 19.7578C18.1639 19.5651 18.0115 19.3363 17.9076 19.0845C17.8037 18.8326 17.7504 18.5628 17.7508 18.2903Z" fill="white"/>
</svg>
