<svg width="57" height="57" viewBox="0 0 57 57" fill="none" xmlns="http://www.w3.org/2000/svg">
<path d="M28.5 14.0273C27.8855 14.0273 27.3867 14.5261 27.3867 15.1406C27.3867 15.7551 27.8855 16.2539 28.5 16.2539C29.1145 16.2539 29.6133 15.7551 29.6133 15.1406C29.6133 14.5261 29.1145 14.0273 28.5 14.0273Z" fill="black"/>
<path d="M10.0195 34.0664C10.634 34.0664 11.1328 33.5676 11.1328 32.9531C11.1328 32.3386 10.634 31.8398 10.0195 31.8398C9.40505 31.8398 8.90625 32.3386 8.90625 32.9531C8.90625 33.5676 9.40505 34.0664 10.0195 34.0664Z" fill="black"/>
<path d="M37.4062 2.89453C27.3837 2.89453 19.1576 9.8047 18.5213 18.5087C8.97626 18.9875 0 25.8703 0 35.1797C0 39.0701 1.53946 42.8396 4.3418 45.8263C4.89626 48.112 4.22308 50.5347 2.55272 52.2051C2.23439 52.5234 2.13915 53.0022 2.31136 53.4184C2.48357 53.8341 2.88931 54.1055 3.33984 54.1055C6.51487 54.1055 9.57465 52.8604 11.8482 50.6665C14.063 51.4214 16.9528 51.8789 19.5938 51.8789C29.615 51.8789 37.8403 44.9705 38.4782 36.2682C40.8092 36.1647 43.2336 35.7342 45.1518 35.0805C47.4253 37.2745 50.4851 38.5195 53.6602 38.5195C54.1107 38.5195 54.5164 38.2482 54.6886 37.8324C54.8608 37.4163 54.7656 36.9375 54.4473 36.6191C52.7769 34.9488 52.1037 32.5261 52.6582 30.2404C55.4605 27.2536 57 23.4841 57 19.5938C57 9.92081 47.3323 2.89453 37.4062 2.89453ZM19.5938 49.6523C16.9662 49.6523 13.9721 49.1366 11.9665 48.3386C11.5368 48.1672 11.0458 48.2799 10.7332 48.6213C9.38896 50.0907 7.6412 51.1153 5.73688 51.5862C6.78623 49.5758 7.05412 47.2057 6.41572 44.96C6.36527 44.783 6.27177 44.6213 6.14349 44.4895C3.61773 41.8881 2.22656 38.5817 2.22656 35.1797C2.22656 27.3345 10.1796 20.707 19.5938 20.707C28.4835 20.707 36.293 26.8888 36.293 35.1797C36.293 43.1601 28.8018 49.6523 19.5938 49.6523ZM50.8565 28.9036C50.7282 29.0358 50.6347 29.1975 50.5843 29.3741C49.9459 31.6198 50.2138 33.9899 51.2631 36.0003C49.3588 35.5298 47.611 34.5048 46.2668 33.0353C45.9542 32.6944 45.4632 32.5813 45.0335 32.7526C43.2953 33.4441 40.8157 33.9229 38.4747 34.0386C38.1495 29.8285 36.0494 25.8716 32.4591 22.9336H46.9805C47.5954 22.9336 48.0938 22.4352 48.0938 21.8203C48.0938 21.2054 47.5954 20.707 46.9805 20.707H29.0388C26.5117 19.4207 23.6742 18.6705 20.7536 18.5131C21.3933 11.0358 28.6179 5.12109 37.4062 5.12109C46.8204 5.12109 54.7734 11.7486 54.7734 19.5938C54.7734 22.9958 53.3823 26.3021 50.8565 28.9036Z" fill="black"/>
<path d="M28.5 31.8398H14.4727C13.8577 31.8398 13.3594 32.3382 13.3594 32.9531C13.3594 33.568 13.8577 34.0664 14.4727 34.0664H28.5C29.1149 34.0664 29.6133 33.568 29.6133 32.9531C29.6133 32.3382 29.1149 31.8398 28.5 31.8398Z" fill="black"/>
<path d="M28.5 38.5195H10.0195C9.40462 38.5195 8.90625 39.0179 8.90625 39.6328C8.90625 40.2477 9.40462 40.7461 10.0195 40.7461H28.5C29.1149 40.7461 29.6133 40.2477 29.6133 39.6328C29.6133 39.0179 29.1149 38.5195 28.5 38.5195Z" fill="black"/>
<path d="M46.9805 14.0273H32.9531C32.3382 14.0273 31.8398 14.5257 31.8398 15.1406C31.8398 15.7555 32.3382 16.2539 32.9531 16.2539H46.9805C47.5954 16.2539 48.0938 15.7555 48.0938 15.1406C48.0938 14.5257 47.5954 14.0273 46.9805 14.0273Z" fill="black"/>
</svg>
