<svg width="40" height="40" viewBox="0 0 40 40" fill="none" xmlns="http://www.w3.org/2000/svg">
<rect width="40" height="40" fill="#363636"/>
<path fill-rule="evenodd" clip-rule="evenodd" d="M13.5123 15.7171C13.3129 15.7132 13.1148 15.7503 12.9302 15.8261C12.7456 15.9019 12.5786 16.0149 12.4393 16.1579C12.2968 16.2974 12.1843 16.4647 12.1088 16.6494C12.0333 16.8342 11.9963 17.0325 12.0003 17.232V26.2497C11.9963 26.4493 12.0332 26.6476 12.1087 26.8324C12.1842 27.0171 12.2967 27.1844 12.4393 27.3238C12.5785 27.4667 12.7454 27.5794 12.9298 27.6551C13.1142 27.7307 13.3121 27.7677 13.5113 27.7637H25.5003C25.6993 27.7653 25.8967 27.7272 26.0808 27.6516C26.265 27.5761 26.4323 27.4645 26.573 27.3235C26.7138 27.1825 26.8251 27.0149 26.9005 26.8304C26.9759 26.6458 27.0139 26.4481 27.0123 26.2487V17.231C27.0159 17.0316 26.9787 16.8335 26.903 16.6489C26.8274 16.4644 26.7148 16.2973 26.5723 16.1579C26.4331 16.015 26.2662 15.9022 26.0819 15.8264C25.8975 15.7506 25.6996 15.7134 25.5003 15.7171H13.5123ZM19.4893 22.4803L13.5123 18.747V17.232L19.4883 21.0014L25.5003 17.232V18.747L19.4893 22.4803Z" fill="white"/>
</svg>
