<svg width="40" height="40" viewBox="0 0 40 40" fill="none" xmlns="http://www.w3.org/2000/svg">
<rect width="40" height="40" fill="#363636"/>
<path fill-rule="evenodd" clip-rule="evenodd" d="M17.8444 19.2452C17.9583 19.1372 18.038 18.998 18.0735 18.845C18.1091 18.6919 18.099 18.5318 18.0444 18.3845C17.7269 17.4251 17.5668 16.4205 17.5704 15.4097C17.5689 15.1974 17.485 14.994 17.3364 14.8426C17.2628 14.7603 17.1724 14.695 17.0712 14.6511C16.9701 14.6072 16.8607 14.5857 16.7504 14.5881H13.8204C13.7138 14.5897 13.6086 14.6131 13.5113 14.6568C13.4139 14.7006 13.3265 14.7638 13.2544 14.8426C13.1758 14.9148 13.1128 15.0024 13.0691 15.0999C13.0254 15.1974 13.0021 15.3028 13.0004 15.4097C12.9804 17.918 13.635 20.3854 14.8954 22.5527C16.128 24.7012 17.9071 26.4839 20.0514 27.7188C22.2145 28.9817 24.677 29.6376 27.1804 29.6175C27.3939 29.6051 27.5953 29.5146 27.7465 29.3631C27.8977 29.2116 27.988 29.0098 28.0004 28.7959V25.8602C28.0028 25.7497 27.9814 25.6401 27.9375 25.5388C27.8937 25.4374 27.8285 25.3468 27.7464 25.273C27.5953 25.1242 27.3923 25.0401 27.1804 25.0386C26.1719 25.0438 25.1692 24.8851 24.2114 24.5686C24.0664 24.5014 23.9032 24.4845 23.7475 24.5208C23.5919 24.5571 23.4529 24.6445 23.3524 24.769L21.5164 26.6036C19.1302 25.4133 17.1964 23.4757 16.0084 21.0848L17.8444 19.2452Z" fill="white"/>
</svg>
