<svg width="51" height="51" viewBox="0 0 51 51" fill="none" xmlns="http://www.w3.org/2000/svg">
<path d="M49.6617 39.3439L39.3391 32.4599C38.0292 31.5934 36.2732 31.8785 35.3048 33.1152L32.2979 36.9812C31.9115 37.4908 31.209 37.6386 30.65 37.328L30.078 37.0127C28.182 35.9792 25.8228 34.6926 21.0694 29.9375C16.3161 25.1825 15.0268 22.8215 13.9933 20.9289L13.6797 20.3569C13.3649 19.798 13.5099 19.0925 14.0196 18.703L17.8831 15.6971C19.1192 14.7285 19.4048 12.9731 18.5392 11.6627L11.6552 1.34011C10.7681 0.00574362 8.98838 -0.394826 7.61507 0.430714L3.29854 3.02366C1.94226 3.82101 0.947212 5.11236 0.522043 6.62709C-1.03233 12.2906 0.137009 22.065 14.5356 36.4653C25.9894 47.9182 34.5162 50.9982 40.3769 50.9982C41.7257 51.004 43.0693 50.8285 44.3714 50.4764C45.8864 50.0517 47.1779 49.0566 47.9748 47.6999L50.5703 43.386C51.3971 42.0124 50.9967 40.2315 49.6617 39.3439ZM49.1059 42.5139L46.5163 46.8304C45.9442 47.8097 45.0152 48.5296 43.9242 48.8396C38.6958 50.275 29.5613 49.0861 15.7381 35.2628C1.91487 21.4396 0.726013 12.306 2.16147 7.07676C2.47181 5.98441 3.19267 5.05429 4.17308 4.48123L8.48961 1.89167C9.08548 1.53313 9.85794 1.70692 10.2429 2.28596L13.9824 7.90021L17.121 12.6076C17.4968 13.176 17.3733 13.9378 16.8371 14.3584L12.9728 17.3644C11.7967 18.2636 11.4609 19.8907 12.185 21.182L12.4918 21.7396C13.578 23.7317 14.9284 26.2099 19.8585 31.1392C24.7887 36.0684 27.2661 37.4189 29.2573 38.505L29.8156 38.8127C31.1068 39.5366 32.734 39.2009 33.6333 38.0249L36.6392 34.1605C37.0599 33.6246 37.8214 33.5012 38.39 33.8767L48.7117 40.7606C49.2911 41.1453 49.4649 41.9181 49.1059 42.5139Z" fill="black"/>
<path d="M28.8991 8.50437C36.8747 8.51323 43.338 14.9766 43.347 22.9523C43.347 23.4216 43.7274 23.8021 44.1968 23.8021C44.6662 23.8021 45.0467 23.4216 45.0467 22.9523C45.0368 14.0382 37.8131 6.81445 28.8991 6.80469C28.4297 6.80469 28.0493 7.18514 28.0493 7.65453C28.0493 8.12392 28.4297 8.50437 28.8991 8.50437Z" fill="black"/>
<path d="M28.8991 13.604C34.0597 13.6101 38.2417 17.792 38.2477 22.9526C38.2477 23.422 38.6283 23.8025 39.0976 23.8025C39.567 23.8025 39.9474 23.422 39.9474 22.9526C39.9404 16.8537 34.998 11.9113 28.8991 11.9043C28.4297 11.9043 28.0493 12.2847 28.0493 12.7541C28.0493 13.2235 28.4297 13.604 28.8991 13.604Z" fill="black"/>
<path d="M28.8991 18.7031C31.2448 18.7059 33.1456 20.6067 33.1485 22.9525C33.1485 23.4219 33.529 23.8023 33.9983 23.8023C34.4676 23.8023 34.8482 23.4219 34.8482 22.9525C34.8444 19.6685 32.1831 17.0071 28.8991 17.0034C28.4297 17.0034 28.0493 17.3839 28.0493 17.8533C28.0493 18.3226 28.4297 18.7031 28.8991 18.7031Z" fill="black"/>
</svg>
