<svg width="12" height="15" viewBox="0 0 12 15" fill="none" xmlns="http://www.w3.org/2000/svg">
<path fill-rule="evenodd" clip-rule="evenodd" d="M3.55391 7.4565L2.45392 12.0475C2.27154 12.9693 2.25056 13.9159 2.39192 14.845H2.95591C3.48466 14.1425 3.89043 13.3551 4.15591 12.5164C4.22258 12.2726 4.42258 11.5074 4.75591 10.2209C4.94615 10.5421 5.22982 10.7973 5.56891 10.9523C5.9536 11.1518 6.38077 11.2549 6.81391 11.2529C7.44718 11.2636 8.07367 11.1209 8.64017 10.8371C9.20666 10.5533 9.69644 10.1367 10.0679 9.62274C10.9428 8.43063 11.3877 6.97622 11.3299 5.49766C11.329 4.87319 11.1989 4.25568 10.9479 3.68411C10.6982 3.10386 10.3374 2.57827 9.8859 2.13708C9.39663 1.67019 8.81845 1.30693 8.18591 1.06898C7.49255 0.799629 6.75454 0.664317 6.01091 0.670203C5.27967 0.663699 4.55179 0.770155 3.85291 0.985821C3.24411 1.16914 2.67139 1.45623 2.15992 1.83448C1.70346 2.17905 1.29925 2.5881 0.959918 3.04886C0.641544 3.47725 0.39498 3.95477 0.229919 4.46263C0.0783458 4.9361 0.00109169 5.43028 0.000919891 5.9275C-0.0131716 6.61753 0.134808 7.30122 0.432919 7.92341C0.698804 8.47922 1.15987 8.91729 1.72792 9.15382C1.81081 9.17537 1.89852 9.16831 1.97692 9.13378C2.02027 9.11174 2.05879 9.08124 2.09021 9.04407C2.12164 9.00691 2.14533 8.96383 2.15992 8.91736C2.19846 8.69172 2.25395 8.46932 2.32592 8.25206C2.34888 8.16966 2.3486 8.08251 2.32512 8.00027C2.30165 7.91802 2.25588 7.84391 2.19292 7.78614C1.8157 7.31723 1.61563 6.73004 1.62792 6.12789C1.6187 5.60076 1.71531 5.07714 1.912 4.58814C2.10869 4.09914 2.40146 3.65473 2.77292 3.28132C3.16383 2.88668 3.63242 2.57785 4.1489 2.37448C4.66537 2.1711 5.21843 2.07763 5.77291 2.1C6.24009 2.07125 6.7083 2.1362 7.15012 2.29105C7.59193 2.44589 7.99847 2.68752 8.34591 3.00177C8.65073 3.30484 8.88972 3.66778 9.04787 4.06781C9.20602 4.46784 9.27991 4.89632 9.2649 5.32632C9.29776 6.43266 9.04018 7.52825 8.51791 8.50355C8.35433 8.87997 8.0886 9.20283 7.75094 9.43541C7.41328 9.66798 7.01725 9.80093 6.60791 9.81913C6.40318 9.82519 6.19974 9.78471 6.01287 9.70072C5.82599 9.61672 5.66053 9.49141 5.52891 9.33418C5.39333 9.17982 5.29931 8.99335 5.25573 8.79242C5.21216 8.59149 5.22048 8.38274 5.27991 8.18593C5.34658 7.91874 5.44658 7.57506 5.57991 7.15491C5.71324 6.71137 5.82391 6.3343 5.91191 6.02369C5.97165 5.75031 6.00514 5.47183 6.01191 5.19206C6.02271 4.86812 5.92327 4.55013 5.72991 4.29029C5.62839 4.16569 5.49843 4.06741 5.351 4.00375C5.20358 3.9401 5.04302 3.91294 4.88291 3.92458C4.6573 3.92857 4.43617 3.98838 4.2392 4.09869C4.04223 4.20899 3.87552 4.36637 3.75391 4.55682C3.43622 5.0022 3.27289 5.5396 3.28891 6.08681C3.27611 6.55546 3.36695 7.02115 3.55491 7.45049L3.55391 7.4565Z" fill="#CCCCCC"/>
</svg>
