<svg width="12" height="12" viewBox="0 0 12 12" fill="none" xmlns="http://www.w3.org/2000/svg">
<path fill-rule="evenodd" clip-rule="evenodd" d="M1.34404 3.77687e-05C1.16717 -0.00129312 0.991803 0.0325617 0.828141 0.0996327C0.664478 0.166704 0.515787 0.265652 0.39072 0.39072C0.265652 0.515787 0.166704 0.664478 0.0996327 0.828141C0.0325617 0.991803 -0.00129312 1.16717 3.77687e-05 1.34404V10.656C-0.00129312 10.8329 0.0325617 11.0083 0.0996327 11.1719C0.166704 11.3356 0.265652 11.4843 0.39072 11.6094C0.515787 11.7344 0.664478 11.8334 0.828141 11.9004C0.991803 11.9675 1.16717 12.0014 1.34404 12H10.656C10.8329 12.0014 11.0083 11.9675 11.1719 11.9004C11.3356 11.8334 11.4843 11.7344 11.6094 11.6094C11.7344 11.4843 11.8334 11.3356 11.9004 11.1719C11.9675 11.0083 12.0014 10.8329 12 10.656V1.34404C12.0014 1.16717 11.9675 0.991803 11.9004 0.828141C11.8334 0.664478 11.7344 0.515787 11.6094 0.39072C11.4843 0.265652 11.3356 0.166704 11.1719 0.0996327C11.0083 0.0325617 10.8329 -0.00129312 10.656 3.77687e-05H1.34404ZM6.65604 6.65604V9.34404H5.34404V6.65604H2.65604V5.34404H5.34404V2.65604H6.65604V5.34404H9.34404V6.65604H6.65604Z" fill="#FF7062"/>
</svg>
