<svg width="17" height="17" viewBox="0 0 17 17" fill="none" xmlns="http://www.w3.org/2000/svg">
<path fill-rule="evenodd" clip-rule="evenodd" d="M10.7428 10.1008L10.4848 9.8428C11.4135 8.76935 11.9172 7.39312 11.9008 5.9738C11.9151 5.18696 11.7682 4.40552 11.4689 3.67767C11.1696 2.94982 10.7245 2.29099 10.1608 1.7418C9.61529 1.17957 8.96041 0.735032 8.23652 0.435603C7.51263 0.136174 6.73507 -0.0118024 5.9518 0.00079683C5.16825 -0.0122655 4.39034 0.135393 3.66608 0.43466C2.94182 0.733927 2.28658 1.17845 1.7408 1.7408C1.1785 2.28662 0.734006 2.94187 0.434743 3.66612C0.13548 4.39037 -0.0122063 5.16826 0.00079683 5.9518C-0.0122655 6.73534 0.135393 7.51325 0.43466 8.23751C0.733927 8.96177 1.17845 9.61701 1.7408 10.1628C2.29024 10.7263 2.9493 11.1712 3.67734 11.4701C4.40537 11.769 5.18693 11.9156 5.9738 11.9008C7.39269 11.9161 8.76816 11.4117 9.8408 10.4828L10.1008 10.7428V11.4728L14.6558 16.0278L16.0308 14.6528L11.4738 10.1008H10.7438H10.7428ZM1.8488 5.9738C1.83869 5.43062 1.93995 4.89113 2.14633 4.38858C2.35272 3.88604 2.65985 3.43109 3.0488 3.0518C3.42813 2.6629 3.88308 2.3558 4.38562 2.14941C4.88815 1.94303 5.42763 1.84175 5.9708 1.8518C6.51395 1.84187 7.05339 1.94321 7.55591 2.14958C8.05843 2.35595 8.51339 2.66299 8.8928 3.0518C9.2816 3.4312 9.58864 3.88616 9.79501 4.38868C10.0014 4.8912 10.1027 5.43064 10.0928 5.9738C10.1028 6.51697 10.0016 7.05644 9.79518 7.55898C9.5888 8.06151 9.2817 8.51647 8.8928 8.8958C8.5135 9.28475 8.05856 9.59188 7.55601 9.79826C7.05347 10.0046 6.51398 10.1059 5.9708 10.0958C5.4276 10.106 4.88807 10.0048 4.38551 9.79843C3.88295 9.59204 3.42802 9.28484 3.0488 8.8958C2.65975 8.51657 2.35256 8.06164 2.14617 7.55908C1.93978 7.05652 1.83857 6.51699 1.8488 5.9738Z" fill="white"/>
</svg>
