<svg width="52" height="52" viewBox="0 0 52 52" fill="none" xmlns="http://www.w3.org/2000/svg">
<path d="M46.5371 12.5952C46.9658 12.5952 47.3415 12.2841 47.4272 11.8649C47.5016 11.5014 47.3358 11.1177 47.022 10.9206C46.6663 10.6971 46.1926 10.7484 45.8941 11.0451C45.3317 11.6041 45.7485 12.5952 46.5371 12.5952Z" fill="black"/>
<path d="M49.853 15.6473C49.6535 15.1871 49.1188 14.9757 48.6583 15.1754C48.1981 15.375 47.9869 15.9099 48.1865 16.3701C50.0952 20.771 50.6495 25.602 49.7894 30.341C48.9095 35.1898 46.5953 39.6018 43.0972 43.0999C33.6689 52.5282 18.3277 52.5284 8.89932 43.0999C4.33195 38.5326 1.81653 32.46 1.81653 26.0009C1.81653 19.5418 4.33195 13.4692 8.8992 8.90198C13.3954 4.40582 19.3725 1.89101 25.7295 1.82089C32.076 1.7492 38.0973 4.12208 42.6833 8.49786C43.0463 8.8441 43.6213 8.83065 43.9675 8.46771C44.3137 8.10477 44.3003 7.52989 43.9374 7.18354C39.0064 2.47872 32.5342 -0.069032 25.7094 0.00447705C18.8748 0.0799238 12.4486 2.78353 7.61467 7.61757C2.70433 12.5279 0 19.0565 0 26.0009C0 32.9453 2.70433 39.4739 7.61467 44.3843C12.525 49.2947 19.0537 51.999 25.998 51.999C32.9424 51.999 39.471 49.2947 44.3814 44.3843C48.1423 40.6235 50.6304 35.8795 51.5766 30.6653C52.501 25.5717 51.9049 20.3786 49.853 15.6473Z" fill="black"/>
<path d="M25.9981 5.1582C14.506 5.1582 5.15649 14.5078 5.15649 25.9999C5.15649 37.492 14.506 46.8415 25.9981 46.8415C37.4902 46.8415 46.8397 37.492 46.8397 25.9999C46.8397 14.5077 37.4902 5.1582 25.9981 5.1582ZM25.9981 45.0248C15.5076 45.0248 6.97303 36.4903 6.97303 25.9998C6.97303 15.5093 15.5076 6.97462 25.9981 6.97462C36.4886 6.97462 45.0231 15.5093 45.0231 25.9998C45.0231 36.4903 36.4886 45.0248 25.9981 45.0248Z" fill="black"/>
<path d="M25.9979 11.8027C25.4963 11.8027 25.0897 12.2094 25.0897 12.711V25.0914H16.9191C16.4175 25.0914 16.0109 25.4981 16.0109 25.9997C16.0109 26.5013 16.4175 26.9079 16.9191 26.9079H25.9979C26.4995 26.9079 26.9062 26.5013 26.9062 25.9997V12.711C26.9062 12.2094 26.4995 11.8027 25.9979 11.8027Z" fill="black"/>
</svg>
