<svg width="16" height="13" viewBox="0 0 16 13" fill="none" xmlns="http://www.w3.org/2000/svg">
<path d="M15.4946 1.69286C14.942 1.94919 14.3512 2.1238 13.7333 2.21552C14.3627 1.82162 14.8366 1.21342 15.0502 0.487848C14.4634 0.854606 13.8125 1.11862 13.1162 1.27294C12.5394 0.683965 11.7274 0.328722 10.8501 0.347117C9.14793 0.382808 7.80658 1.79311 7.84209 3.4868C7.8472 3.7305 7.87273 3.96439 7.92803 4.18641C5.36941 4.11534 3.08203 2.93772 1.52355 1.10343C1.26795 1.5692 1.1234 2.09922 1.13529 2.66628C1.15762 3.73105 1.72572 4.66341 2.5545 5.19271C2.06035 5.1937 1.57276 5.06045 1.15749 4.84317C1.15769 4.85255 1.15795 4.86473 1.1582 4.87692C1.18953 6.37096 2.28125 7.58959 3.68475 7.84616C3.43593 7.91983 3.16387 7.95836 2.8808 7.96429C2.68397 7.96842 2.48503 7.96134 2.29764 7.92401C2.72152 9.1332 3.87067 10.0046 5.21536 10.0055C4.18649 10.8457 2.86869 11.3665 1.43088 11.3967C1.17875 11.402 0.936687 11.3958 0.694217 11.3699C2.07452 12.2196 3.69906 12.6872 5.43961 12.6507C11.0971 12.5321 14.0919 7.78079 14.0067 3.71856C14.0039 3.58265 13.9965 3.45153 13.9872 3.32138C14.5883 2.87556 15.0896 2.32399 15.4946 1.69286Z" fill="#CCCCCC"/>
</svg>
